<svg width="1116" height="1304" viewBox="0 0 1116 1304" fill="none" xmlns="http://www.w3.org/2000/svg">
<path d="M83.7614 206.94H1024.85L995.285 650.384L1116 982.967H2.46338L83.7614 650.384V206.94Z" fill="#FF5200"/>
<path d="M0 231.576H1092.6L1014.99 -3.17339e-05H73.9073L0 231.576Z" fill="#FF5200"/>
<path d="M2.46338 982.967H1116L1059.95 1515.1H44.9601L2.46338 982.967Z" fill="#FF5200"/>
<path d="M224.984 319.033H836.263L907.828 817.907H161.365L224.984 319.033Z" fill="black"/>
<path d="M85.6094 231.576H1021.15L832 319.033H224.984L85.6094 231.576Z" fill="#A73601"/>
<path d="M160.132 817.907H906.596L1114.77 982.967H3.69531L160.132 817.907Z" fill="#FF7331"/>
<path d="M856.093 1066.73H1000.21V1249.03H856.093V1066.73Z" fill="black"/>
<path fill-rule="evenodd" clip-rule="evenodd" d="M996.517 1070.42H859.788V1245.34H996.517V1070.42ZM856.093 1066.73V1249.03H1000.21V1066.73H856.093Z" fill="#0D2B52"/>
<path d="M874.57 1076.58H896.742V1234.25H874.57V1076.58Z" fill="#FF5200" fill-opacity="0.33"/>
<path d="M549.99 831.963L566.949 890.721L536.601 895.758L506.252 890.721L522.319 831.963H549.99Z" fill="#0A1E38"/>
<path d="M677.273 840.357C677.273 900.171 616.659 951.213 538.386 951.213C460.114 951.213 399.5 900.171 399.5 840.357C399.5 780.543 460.114 729.5 538.386 729.5C616.659 729.5 677.273 780.543 677.273 840.357Z" stroke="#0D2B52" stroke-width="15"/>
<path d="M539.279 814.335C472.334 814.335 424.432 825.807 396.463 831.123V869.736C428.597 863.581 497.327 848.751 539.279 848.751C587.48 848.751 644.011 857.425 681.203 861.342V831.123C648.177 825.807 591.943 814.335 539.279 814.335Z" fill="#0D2B52"/>
<path d="M523.3 875.571C521.86 834.624 506.2 819.599 499 819H571C565.9 820.796 549.4 837.255 549.4 875.571C549.4 912.388 562.3 940.524 571 951H499C502.6 941.721 524.74 916.518 523.3 875.571Z" fill="#0D2B52"/>
<path d="M536.737 792.531L546.085 819.584L546.201 819.921H546.557L576.716 819.921L552.344 836.573L552.029 836.788L552.153 837.149L561.479 864.141L537.019 847.429L536.737 847.236L536.455 847.429L511.996 864.141L521.321 837.149L521.446 836.788L521.131 836.573L496.759 819.921L526.918 819.921H527.274L527.39 819.584L536.737 792.531Z" fill="#A6FF47" stroke="#FF5200"/>
<path d="M112 895.231H209V938.43H112V895.231Z" fill="#A6FF47"/>
<path d="M112 896.368C112 890.09 116.772 885 122.659 885H198.341C204.228 885 209 890.09 209 896.368V923.083C209 929.361 204.228 934.451 198.341 934.451H122.659C116.772 934.451 112 929.361 112 923.083V896.368Z" fill="#A6FF47"/>
<path d="M219 852.231H316V895.43H219V852.231Z" fill="#0D2B52"/>
<path d="M219 853.368C219 847.09 223.772 842 229.659 842H305.341C311.228 842 316 847.09 316 853.368V880.083C316 886.361 311.228 891.451 305.341 891.451H229.659C223.772 891.451 219 886.361 219 880.083V853.368Z" fill="#0D2B52"/>
<path d="M754 857.231H851V900.43H754V857.231Z" fill="#0D2B52"/>
<path d="M754 858.368C754 852.09 758.772 847 764.659 847H840.341C846.228 847 851 852.09 851 858.368V885.083C851 891.361 846.228 896.451 840.341 896.451H764.659C758.772 896.451 754 891.361 754 885.083V858.368Z" fill="#0D2B52"/>
<path d="M870 900.231H967V943.43H870V900.231Z" fill="#A6FF47"/>
<path d="M870 901.368C870 895.09 874.772 890 880.659 890H956.341C962.228 890 967 895.09 967 901.368V928.083C967 934.361 962.228 939.451 956.341 939.451H880.659C874.772 939.451 870 934.361 870 928.083V901.368Z" fill="#A6FF47"/>
<rect x="102.5" y="1037.5" width="164" height="38" fill="black" stroke="#A6FF47" stroke-width="3"/>
</svg>
