<svg width="229" height="46" viewBox="0 0 229 46" fill="none" xmlns="http://www.w3.org/2000/svg">
<g filter="url(#filter0_f_273_271)">
<path d="M13.5869 33V12.2559C9.91309 12.2559 9.13379 12.2744 7.72363 12.2744V8.43359C9.9873 8.43359 18.4111 8.41504 21.8994 8.41504C23.2539 8.41504 24.5527 8.58203 24.998 8.71191L23.8848 12.4785C23.8848 12.4785 22.9199 12.2559 21.8066 12.2559H18.4111V33H13.5869ZM36.3535 7.95117C39.3408 7.95117 44.7402 9.30566 44.833 20.9951V21.1992C44.833 24.2979 44.2578 27.2109 43.3672 28.9736C41.9756 31.7012 39.1924 33.2969 36.1309 33.2969C33.8672 33.2969 31.1025 32.5361 29.5996 30.6436C27.9297 28.5654 27.3359 25.6709 27.3359 22.2568C27.3359 15.7256 28.4492 12.7754 29.748 10.9756C30.9727 9.26855 33.459 8.00684 36.3535 7.95117ZM33.1807 27.8604C34.0527 29.2334 34.7578 29.5303 36.1309 29.5303C37.5967 29.5303 38.5059 28.3799 39.0811 26.9512C39.582 25.8564 39.9717 22.9619 39.9902 21.125V20.8096C39.9902 18.8242 39.8232 16.0596 39.1553 14.2783C38.4131 12.3115 37.4482 11.7178 36.335 11.7178C35.1289 11.7178 34.4238 12.1816 33.6816 13.499C32.8096 15.0391 32.1787 17.5068 32.1787 22.0156C32.1787 23.8154 32.4199 26.6543 33.1807 27.8604ZM52.8672 12.4414V33.0928H48.1172L48.0615 8.52637L60.5117 8.54492H63.4248L63.4434 33.0928H58.6934L58.6562 12.4414H52.8672ZM85.6719 33L86.1729 28.6953C86.5811 29.0107 86.9521 29.2705 87.8984 29.2705C89.2344 29.2705 89.4941 27.1367 89.8281 8.54492L97.417 8.52637H99.625C101.072 8.52637 102.371 8.52637 103.41 8.60059V33H98.5859C98.6045 29.1406 98.6602 26.8398 98.6602 21.1992V17.8594V12.4229H94.5596C94.0957 31.1074 93.0381 33.1855 87.7871 33.1855C86.8408 33.1855 86.043 33.1113 85.6719 33ZM117.864 8.69336L122.429 8.71191C122.429 9.69531 122.447 10.9941 122.447 12.0518C122.447 16.3193 122.373 21.0322 122.373 25.2256V27.415C122.373 29.5488 122.373 31.4229 122.466 33H117.994C117.827 29.8271 117.827 27.4336 117.827 23.9824C117.827 21.9785 118.439 18.1377 118.439 18.1377C116.269 22.7393 113.244 29.8828 111.853 33L106.676 33.0186L106.731 8.74902L111.277 8.69336C111.277 11.5137 111.259 19.251 111.259 19.251C111.259 22.8691 110.535 27.0996 110.535 27.0996C112.743 21.6074 116.064 15.5215 117.864 8.69336ZM136.382 17.8594V12.8311H133.45C133.153 22.0898 132.56 24.6689 131.335 29.2148H136.438C136.438 27.7119 136.382 24.8916 136.382 21.1992V17.8594ZM143.47 38.4922L139.202 38.4551L139.239 33.0557C137.811 33.0557 129.498 33.1113 129.498 33.1113V33.4082C129.498 35.3936 129.832 38.3252 129.832 38.3252L125.602 38.6221C125.416 36.9521 125.23 33.1299 125.23 31.0332C125.23 30.4023 125.212 29.79 125.193 29.2148H126.214C128.218 23.7227 128.774 20.3828 128.774 10.252V8.95312C131.632 8.95312 134.489 8.93457 137.365 8.93457C138.812 8.93457 140.111 8.93457 141.15 9.00879V29.2148H143.47V38.4922ZM146.995 8.52637C148.034 8.45215 149.333 8.45215 150.78 8.45215H152.599H154.64C157.404 8.45215 159.928 8.50781 161.301 8.50781H161.598V12.2559H151.782V17.2471H158.054V21.0137H151.782V21.5889C151.782 25.4297 151.745 27.749 151.745 29.2148L159.464 29.1777C160.503 29.1777 161.783 28.6768 161.783 28.6768L163.119 32.3691C162.229 32.6104 161.468 33 159.649 33H146.995V8.52637ZM177.592 16.1338C177.592 12.3486 175.421 12.2744 173.899 12.2744H173.732C172.601 12.2744 171.784 12.3486 170.949 12.3672V13.6846C170.949 17.1543 170.912 20.958 170.912 20.958C171.58 20.9766 172.229 20.9951 172.842 20.9951C174.994 20.9951 177.592 20.457 177.592 16.1338ZM170.912 33H166.273V8.50781C168.463 8.50781 169.168 8.35938 171.636 8.35938C175.811 8.35938 178.983 8.60059 181.117 11.2168C182.119 12.4414 182.453 14.1484 182.453 15.8555C182.453 21.8672 180.152 24.8545 173.77 24.8545C172.879 24.8545 171.914 24.8359 170.912 24.7988V33ZM193.697 7.95117C196.685 7.95117 202.084 9.30566 202.177 20.9951V21.1992C202.177 24.2979 201.602 27.2109 200.711 28.9736C199.319 31.7012 196.536 33.2969 193.475 33.2969C191.211 33.2969 188.446 32.5361 186.943 30.6436C185.273 28.5654 184.68 25.6709 184.68 22.2568C184.68 15.7256 185.793 12.7754 187.092 10.9756C188.316 9.26855 190.803 8.00684 193.697 7.95117ZM190.524 27.8604C191.396 29.2334 192.102 29.5303 193.475 29.5303C194.94 29.5303 195.85 28.3799 196.425 26.9512C196.926 25.8564 197.315 22.9619 197.334 21.125V20.8096C197.334 18.8242 197.167 16.0596 196.499 14.2783C195.757 12.3115 194.792 11.7178 193.679 11.7178C192.473 11.7178 191.768 12.1816 191.025 13.499C190.153 15.0391 189.522 17.5068 189.522 22.0156C189.522 23.8154 189.764 26.6543 190.524 27.8604ZM204.904 17.4697C204.904 14.1855 204.849 11.1426 204.682 8.73047C206.185 8.61914 208.819 8.41504 210.916 8.41504H211.25C215.369 8.41504 218.319 10.1035 218.319 14.1855C218.319 16.8574 217.354 17.7109 215.963 18.4717C218.987 19.3066 221.659 21.2363 221.659 25.4297C221.659 31.0332 218.394 32.5732 215.295 32.9443C214.571 33.0371 213.811 33.0928 213.087 33.0928C211.714 33.0928 210.638 33 209.061 33H208.355H204.756C204.756 29.3262 204.904 25.3369 204.904 17.4697ZM213.532 14.2227C213.532 12.2188 211.937 12.1631 211.51 12.1631H211.436H211.139C210.415 12.1631 210.1 12.2002 209.543 12.2559C209.599 12.9053 209.599 13.6104 209.599 14.3711C209.599 15.373 209.58 16.4492 209.58 17.5254H210.285C211.64 17.5254 213.532 17.3027 213.532 14.3711V14.2227ZM212.567 21.1621C211.658 21.1621 211.714 21.1992 210.359 21.1992H209.543C209.506 25.6895 209.487 27.8789 209.469 29.3262C210.378 29.3818 211.102 29.4375 211.807 29.4375C212.363 29.4375 212.92 29.4004 213.569 29.3262C214.163 29.252 216.872 28.584 216.872 25.207C216.872 22.0156 214.794 21.1621 212.567 21.1621Z" fill="#FF5200"/>
</g>
<defs>
<filter id="filter0_f_273_271" x="0.723633" y="0.951172" width="227.936" height="44.6709" filterUnits="userSpaceOnUse" color-interpolation-filters="sRGB">
<feFlood flood-opacity="0" result="BackgroundImageFix"/>
<feBlend mode="normal" in="SourceGraphic" in2="BackgroundImageFix" result="shape"/>
<feGaussianBlur stdDeviation="3.5" result="effect1_foregroundBlur_273_271"/>
</filter>
</defs>
</svg>
