<svg width="674" height="277" viewBox="0 0 674 277" fill="none" xmlns="http://www.w3.org/2000/svg">
<g filter="url(#filter0_f_273_300)">
<path d="M25.835 33.686C34.7217 33.0513 45.8301 33.0513 58.208 33.0513H73.7598H91.2158C114.861 33.0513 136.443 33.5273 148.186 33.5273H150.725V65.583H66.7773V108.271H120.415V140.485H66.7773V145.405C66.7773 178.254 66.46 198.09 66.46 210.627L132.476 210.31C141.362 210.31 152.312 206.025 152.312 206.025L163.738 237.604C156.121 239.667 149.614 243 134.062 243H25.835V33.686ZM296.569 25.4341L329.577 44.001L274.669 133.82C301.806 176.984 308.629 203.01 331.164 225.227L304.821 250.141C280.7 226.337 276.891 210.151 252.77 170.954L207.702 251.569L174.376 230.622L229.284 136.677C210.241 103.669 193.419 74.9458 171.203 49.7139L201.513 25.1167C222.143 48.7617 235.473 73.2002 251.818 100.971L296.569 25.4341ZM354.021 32.8926C378.777 32.2578 394.805 32.0991 410.04 32.0991C426.702 32.0991 442.571 32.2578 468.438 32.5752L468.279 66.0591C448.76 66.0591 446.856 65.2656 431.78 65.2656V208.247C439.08 208.247 436.7 208.088 444.793 208.088C451.934 208.088 459.393 208.247 467.645 208.723L467.803 243.159C454.314 242.365 444.476 242.207 434.478 242.207C427.02 242.207 419.244 242.365 409.881 242.365C398.138 242.365 378.936 243.476 354.339 243.476V209.199C367.828 208.564 373.858 208.405 382.903 208.405H391.155V65.4243C380.682 65.583 371.795 65.583 354.974 66.5352L354.021 32.8926ZM551.123 243V65.583C519.702 65.583 513.037 65.7417 500.976 65.7417V32.8926C520.336 32.8926 592.382 32.7339 622.216 32.7339C633.801 32.7339 644.909 34.1621 648.718 35.2729L639.196 67.4873C639.196 67.4873 630.944 65.583 621.423 65.583H592.382V243H551.123Z" fill="#FF5200"/>
</g>
<defs>
<filter id="filter0_f_273_300" x="0.834961" y="0.117188" width="672.883" height="276.452" filterUnits="userSpaceOnUse" color-interpolation-filters="sRGB">
<feFlood flood-opacity="0" result="BackgroundImageFix"/>
<feBlend mode="normal" in="SourceGraphic" in2="BackgroundImageFix" result="shape"/>
<feGaussianBlur stdDeviation="12.5" result="effect1_foregroundBlur_273_300"/>
</filter>
</defs>
</svg>
