<svg width="53" height="63" viewBox="0 0 53 63" fill="none" xmlns="http://www.w3.org/2000/svg">
<rect x="3.59326" width="45.8135" height="62.8813" rx="21" fill="#FF5200"/>
<path d="M51.5001 47.0112C51.5001 50.2536 50.9524 53.1188 50.1236 55.1177C49.7078 56.1205 49.2508 56.8338 48.82 57.2732C48.3942 57.7076 48.0873 57.788 47.9097 57.788C47.7321 57.788 47.4253 57.7076 46.9995 57.2732C46.5687 56.8338 46.1117 56.1205 45.6959 55.1177C44.8671 53.1188 44.3193 50.2536 44.3193 47.0112C44.3193 43.7688 44.8671 40.9036 45.6959 38.9047C46.1117 37.9019 46.5687 37.1886 46.9995 36.7492C47.4253 36.3148 47.7321 36.2344 47.9097 36.2344C48.0873 36.2344 48.3942 36.3148 48.82 36.7492C49.2508 37.1886 49.7078 37.9019 50.1236 38.9047C50.9524 40.9036 51.5001 43.7688 51.5001 47.0112Z" fill="#0D2B52" stroke="#A6FF47" stroke-width="3"/>
<path d="M8.68078 47.0112C8.68078 50.2536 8.13302 53.1188 7.30423 55.1177C6.88843 56.1205 6.43142 56.8338 6.00064 57.2732C5.57484 57.7076 5.268 57.788 5.09039 57.788C4.91278 57.788 4.60594 57.7076 4.18014 57.2732C3.74936 56.8338 3.29235 56.1205 2.87655 55.1177C2.04776 53.1188 1.5 50.2536 1.5 47.0112C1.5 43.7688 2.04776 40.9036 2.87655 38.9047C3.29235 37.9019 3.74936 37.1886 4.18014 36.7492C4.60594 36.3148 4.91278 36.2344 5.09039 36.2344C5.268 36.2344 5.57484 36.3148 6.00064 36.7492C6.43142 37.1886 6.88843 37.9019 7.30423 38.9047C8.13302 40.9036 8.68078 43.7688 8.68078 47.0112Z" fill="#0D2B52" stroke="#A6FF47" stroke-width="3"/>
<path d="M8.68078 15.8701C8.68078 19.1125 8.13302 21.9777 7.30423 23.9766C6.88843 24.9794 6.43142 25.6926 6.00064 26.1321C5.57484 26.5664 5.268 26.6469 5.09039 26.6469C4.91278 26.6469 4.60594 26.5664 4.18014 26.1321C3.74936 25.6926 3.29235 24.9794 2.87655 23.9766C2.04776 21.9777 1.5 19.1125 1.5 15.8701C1.5 12.6277 2.04776 9.76244 2.87655 7.76358C3.29235 6.76077 3.74936 6.04752 4.18014 5.6081C4.60594 5.17373 4.91278 5.09326 5.09039 5.09326C5.268 5.09326 5.57484 5.17373 6.00064 5.6081C6.43142 6.04752 6.88843 6.76077 7.30423 7.76358C8.13302 9.76244 8.68078 12.6277 8.68078 15.8701Z" fill="#0D2B52" stroke="#A6FF47" stroke-width="3"/>
<path d="M51.5001 15.8701C51.5001 19.1125 50.9524 21.9777 50.1236 23.9766C49.7078 24.9794 49.2508 25.6926 48.82 26.1321C48.3942 26.5664 48.0873 26.6469 47.9097 26.6469C47.7321 26.6469 47.4253 26.5664 46.9995 26.1321C46.5687 25.6926 46.1117 24.9794 45.6959 23.9766C44.8671 21.9777 44.3193 19.1125 44.3193 15.8701C44.3193 12.6277 44.8671 9.76244 45.6959 7.76358C46.1117 6.76077 46.5687 6.04752 46.9995 5.6081C47.4253 5.17373 47.7321 5.09326 47.9097 5.09326C48.0873 5.09326 48.3942 5.17373 48.82 5.6081C49.2508 6.04752 49.7078 6.76077 50.1236 7.76358C50.9524 9.76244 51.5001 12.6277 51.5001 15.8701Z" fill="#0D2B52" stroke="#A6FF47" stroke-width="3"/>
</svg>
