<svg width="1146" height="455" viewBox="0 0 1146 455" fill="none" xmlns="http://www.w3.org/2000/svg">
<rect x="981" width="153" height="210" rx="21" fill="#FF5200"/>
<path d="M1144.5 155C1144.5 166.174 1142.62 176.22 1139.64 183.417C1138.14 187.019 1136.4 189.835 1134.55 191.728C1132.7 193.616 1130.82 194.5 1129 194.5C1127.18 194.5 1125.31 193.616 1123.45 191.728C1121.6 189.835 1119.86 187.019 1118.37 183.417C1115.38 176.22 1113.5 166.174 1113.5 155C1113.5 143.826 1115.38 133.78 1118.37 126.583C1119.86 122.981 1121.6 120.165 1123.45 118.272C1125.31 116.384 1127.18 115.5 1129 115.5C1130.82 115.5 1132.7 116.384 1134.55 118.272C1136.4 120.165 1138.14 122.981 1139.64 126.583C1142.62 133.78 1144.5 143.826 1144.5 155Z" fill="#0D2B52" stroke="#A6FF47" stroke-width="3"/>
<path d="M1001.5 155C1001.5 166.174 999.62 176.22 996.636 183.417C995.142 187.019 993.402 189.835 991.546 191.728C989.696 193.616 987.822 194.5 986 194.5C984.179 194.5 982.305 193.616 980.454 191.728C978.599 189.835 976.859 187.019 975.365 183.417C972.381 176.22 970.5 166.174 970.5 155C970.5 143.826 972.381 133.78 975.365 126.583C976.859 122.981 978.599 120.165 980.454 118.272C982.305 116.384 984.179 115.5 986 115.5C987.822 115.5 989.696 116.384 991.546 118.272C993.402 120.165 995.142 122.981 996.636 126.583C999.62 133.78 1001.5 143.826 1001.5 155Z" fill="#0D2B52" stroke="#A6FF47" stroke-width="3"/>
<path d="M1001.5 51C1001.5 62.1741 999.62 72.2201 996.636 79.4169C995.142 83.0186 993.402 85.8351 991.546 87.728C989.696 89.6158 987.822 90.5 986 90.5C984.179 90.5 982.305 89.6158 980.454 87.728C978.599 85.8351 976.859 83.0186 975.365 79.4169C972.381 72.2201 970.5 62.1741 970.5 51C970.5 39.8259 972.381 29.7799 975.365 22.5831C976.859 18.9814 978.599 16.1649 980.454 14.272C982.305 12.3842 984.179 11.5 986 11.5C987.822 11.5 989.696 12.3842 991.546 14.272C993.402 16.1649 995.142 18.9814 996.636 22.5831C999.62 29.7799 1001.5 39.8259 1001.5 51Z" fill="#0D2B52" stroke="#A6FF47" stroke-width="3"/>
<path d="M1144.5 51C1144.5 62.1741 1142.62 72.2201 1139.64 79.4169C1138.14 83.0186 1136.4 85.8351 1134.55 87.728C1132.7 89.6158 1130.82 90.5 1129 90.5C1127.18 90.5 1125.31 89.6158 1123.45 87.728C1121.6 85.8351 1119.86 83.0186 1118.37 79.4169C1115.38 72.2201 1113.5 62.1741 1113.5 51C1113.5 39.8259 1115.38 29.7799 1118.37 22.5831C1119.86 18.9814 1121.6 16.1649 1123.45 14.272C1125.31 12.3842 1127.18 11.5 1129 11.5C1130.82 11.5 1132.7 12.3842 1134.55 14.272C1136.4 16.1649 1138.14 18.9814 1139.64 22.5831C1142.62 29.7799 1144.5 39.8259 1144.5 51Z" fill="#0D2B52" stroke="#A6FF47" stroke-width="3"/>
<rect x="11" width="153" height="210" rx="21" fill="#A6FF47"/>
<path d="M175.5 155C175.5 166.174 173.619 176.22 170.635 183.417C169.142 187.019 167.402 189.835 165.546 191.728C163.695 193.616 161.822 194.5 160 194.5C158.178 194.5 156.305 193.616 154.454 191.728C152.598 189.835 150.858 187.019 149.365 183.417C146.381 176.22 144.5 166.174 144.5 155C144.5 143.826 146.381 133.78 149.365 126.583C150.858 122.981 152.598 120.165 154.454 118.272C156.305 116.384 158.178 115.5 160 115.5C161.822 115.5 163.695 116.384 165.546 118.272C167.402 120.165 169.142 122.981 170.635 126.583C173.619 133.78 175.5 143.826 175.5 155Z" fill="#0D2B52" stroke="#FF5200" stroke-width="3"/>
<path d="M32.5 155C32.5 166.174 30.6192 176.22 27.6352 183.417C26.1418 187.019 24.4016 189.835 22.546 191.728C20.6954 193.616 18.822 194.5 17 194.5C15.178 194.5 13.3046 193.616 11.454 191.728C9.59837 189.835 7.8582 187.019 6.3648 183.417C3.38079 176.22 1.5 166.174 1.5 155C1.5 143.826 3.38079 133.78 6.3648 126.583C7.8582 122.981 9.59837 120.165 11.454 118.272C13.3046 116.384 15.178 115.5 17 115.5C18.822 115.5 20.6954 116.384 22.546 118.272C24.4016 120.165 26.1418 122.981 27.6352 126.583C30.6192 133.78 32.5 143.826 32.5 155Z" fill="#0D2B52" stroke="#FF5200" stroke-width="3"/>
<path d="M32.5 51C32.5 62.1741 30.6192 72.2201 27.6352 79.4169C26.1418 83.0186 24.4016 85.8351 22.546 87.728C20.6954 89.6158 18.822 90.5 17 90.5C15.178 90.5 13.3046 89.6158 11.454 87.728C9.59837 85.8351 7.8582 83.0186 6.3648 79.4169C3.38079 72.2201 1.5 62.1741 1.5 51C1.5 39.8259 3.38079 29.7799 6.3648 22.5831C7.8582 18.9814 9.59837 16.1649 11.454 14.272C13.3046 12.3842 15.178 11.5 17 11.5C18.822 11.5 20.6954 12.3842 22.546 14.272C24.4016 16.1649 26.1418 18.9814 27.6352 22.5831C30.6192 29.7799 32.5 39.8259 32.5 51Z" fill="#0D2B52" stroke="#FF5200" stroke-width="3"/>
<path d="M175.5 51C175.5 62.1741 173.619 72.2201 170.635 79.4169C169.142 83.0186 167.402 85.8351 165.546 87.728C163.695 89.6158 161.822 90.5 160 90.5C158.178 90.5 156.305 89.6158 154.454 87.728C152.598 85.8351 150.858 83.0186 149.365 79.4169C146.381 72.2201 144.5 62.1741 144.5 51C144.5 39.8259 146.381 29.7799 149.365 22.5831C150.858 18.9814 152.598 16.1649 154.454 14.272C156.305 12.3842 158.178 11.5 160 11.5C161.822 11.5 163.695 12.3842 165.546 14.272C167.402 16.1649 169.142 18.9814 170.635 22.5831C173.619 29.7799 175.5 39.8259 175.5 51Z" fill="#0D2B52" stroke="#FF5200" stroke-width="3"/>
<rect x="981" y="245" width="153" height="210" rx="21" fill="#A6FF47"/>
<path d="M1144.5 402C1144.5 413.174 1142.62 423.22 1139.64 430.417C1138.14 434.019 1136.4 436.835 1134.55 438.728C1132.7 440.616 1130.82 441.5 1129 441.5C1127.18 441.5 1125.31 440.616 1123.45 438.728C1121.6 436.835 1119.86 434.019 1118.37 430.417C1115.38 423.22 1113.5 413.174 1113.5 402C1113.5 390.826 1115.38 380.78 1118.37 373.583C1119.86 369.981 1121.6 367.165 1123.45 365.272C1125.31 363.384 1127.18 362.5 1129 362.5C1130.82 362.5 1132.7 363.384 1134.55 365.272C1136.4 367.165 1138.14 369.981 1139.64 373.583C1142.62 380.78 1144.5 390.826 1144.5 402Z" fill="#0D2B52" stroke="#FF5200" stroke-width="3"/>
<path d="M1001.5 402C1001.5 413.174 999.62 423.22 996.636 430.417C995.142 434.019 993.402 436.835 991.546 438.728C989.696 440.616 987.822 441.5 986 441.5C984.179 441.5 982.305 440.616 980.454 438.728C978.599 436.835 976.859 434.019 975.365 430.417C972.381 423.22 970.5 413.174 970.5 402C970.5 390.826 972.381 380.78 975.365 373.583C976.859 369.981 978.599 367.165 980.454 365.272C982.305 363.384 984.179 362.5 986 362.5C987.822 362.5 989.696 363.384 991.546 365.272C993.402 367.165 995.142 369.981 996.636 373.583C999.62 380.78 1001.5 390.826 1001.5 402Z" fill="#0D2B52" stroke="#FF5200" stroke-width="3"/>
<path d="M1001.5 298C1001.5 309.174 999.62 319.22 996.636 326.417C995.142 330.019 993.402 332.835 991.546 334.728C989.696 336.616 987.822 337.5 986 337.5C984.179 337.5 982.305 336.616 980.454 334.728C978.599 332.835 976.859 330.019 975.365 326.417C972.381 319.22 970.5 309.174 970.5 298C970.5 286.826 972.381 276.78 975.365 269.583C976.859 265.981 978.599 263.165 980.454 261.272C982.305 259.384 984.179 258.5 986 258.5C987.822 258.5 989.696 259.384 991.546 261.272C993.402 263.165 995.142 265.981 996.636 269.583C999.62 276.78 1001.5 286.826 1001.5 298Z" fill="#0D2B52" stroke="#FF5200" stroke-width="3"/>
<path d="M1144.5 298C1144.5 309.174 1142.62 319.22 1139.64 326.417C1138.14 330.019 1136.4 332.835 1134.55 334.728C1132.7 336.616 1130.82 337.5 1129 337.5C1127.18 337.5 1125.31 336.616 1123.45 334.728C1121.6 332.835 1119.86 330.019 1118.37 326.417C1115.38 319.22 1113.5 309.174 1113.5 298C1113.5 286.826 1115.38 276.78 1118.37 269.583C1119.86 265.981 1121.6 263.165 1123.45 261.272C1125.31 259.384 1127.18 258.5 1129 258.5C1130.82 258.5 1132.7 259.384 1134.55 261.272C1136.4 263.165 1138.14 265.981 1139.64 269.583C1142.62 276.78 1144.5 286.826 1144.5 298Z" fill="#0D2B52" stroke="#FF5200" stroke-width="3"/>
<rect x="787" y="245" width="153" height="210" rx="21" fill="#FF5200"/>
<path d="M950.5 402C950.5 413.174 948.619 423.22 945.635 430.417C944.142 434.019 942.402 436.835 940.546 438.728C938.695 440.616 936.822 441.5 935 441.5C933.178 441.5 931.305 440.616 929.454 438.728C927.598 436.835 925.858 434.019 924.365 430.417C921.381 423.22 919.5 413.174 919.5 402C919.5 390.826 921.381 380.78 924.365 373.583C925.858 369.981 927.598 367.165 929.454 365.272C931.305 363.384 933.178 362.5 935 362.5C936.822 362.5 938.695 363.384 940.546 365.272C942.402 367.165 944.142 369.981 945.635 373.583C948.619 380.78 950.5 390.826 950.5 402Z" fill="#0D2B52" stroke="#A6FF47" stroke-width="3"/>
<path d="M807.5 402C807.5 413.174 805.619 423.22 802.635 430.417C801.142 434.019 799.402 436.835 797.546 438.728C795.695 440.616 793.822 441.5 792 441.5C790.178 441.5 788.305 440.616 786.454 438.728C784.598 436.835 782.858 434.019 781.365 430.417C778.381 423.22 776.5 413.174 776.5 402C776.5 390.826 778.381 380.78 781.365 373.583C782.858 369.981 784.598 367.165 786.454 365.272C788.305 363.384 790.178 362.5 792 362.5C793.822 362.5 795.695 363.384 797.546 365.272C799.402 367.165 801.142 369.981 802.635 373.583C805.619 380.78 807.5 390.826 807.5 402Z" fill="#0D2B52" stroke="#A6FF47" stroke-width="3"/>
<path d="M807.5 298C807.5 309.174 805.619 319.22 802.635 326.417C801.142 330.019 799.402 332.835 797.546 334.728C795.695 336.616 793.822 337.5 792 337.5C790.178 337.5 788.305 336.616 786.454 334.728C784.598 332.835 782.858 330.019 781.365 326.417C778.381 319.22 776.5 309.174 776.5 298C776.5 286.826 778.381 276.78 781.365 269.583C782.858 265.981 784.598 263.165 786.454 261.272C788.305 259.384 790.178 258.5 792 258.5C793.822 258.5 795.695 259.384 797.546 261.272C799.402 263.165 801.142 265.981 802.635 269.583C805.619 276.78 807.5 286.826 807.5 298Z" fill="#0D2B52" stroke="#A6FF47" stroke-width="3"/>
<path d="M950.5 298C950.5 309.174 948.619 319.22 945.635 326.417C944.142 330.019 942.402 332.835 940.546 334.728C938.695 336.616 936.822 337.5 935 337.5C933.178 337.5 931.305 336.616 929.454 334.728C927.598 332.835 925.858 330.019 924.365 326.417C921.381 319.22 919.5 309.174 919.5 298C919.5 286.826 921.381 276.78 924.365 269.583C925.858 265.981 927.598 263.165 929.454 261.272C931.305 259.384 933.178 258.5 935 258.5C936.822 258.5 938.695 259.384 940.546 261.272C942.402 263.165 944.142 265.981 945.635 269.583C948.619 276.78 950.5 286.826 950.5 298Z" fill="#0D2B52" stroke="#A6FF47" stroke-width="3"/>
<rect x="593" y="245" width="153" height="210" rx="21" fill="#A6FF47"/>
<path d="M756.5 402C756.5 413.174 754.619 423.22 751.635 430.417C750.142 434.019 748.402 436.835 746.546 438.728C744.695 440.616 742.822 441.5 741 441.5C739.178 441.5 737.305 440.616 735.454 438.728C733.598 436.835 731.858 434.019 730.365 430.417C727.381 423.22 725.5 413.174 725.5 402C725.5 390.826 727.381 380.78 730.365 373.583C731.858 369.981 733.598 367.165 735.454 365.272C737.305 363.384 739.178 362.5 741 362.5C742.822 362.5 744.695 363.384 746.546 365.272C748.402 367.165 750.142 369.981 751.635 373.583C754.619 380.78 756.5 390.826 756.5 402Z" fill="#0D2B52" stroke="#FF5200" stroke-width="3"/>
<path d="M613.5 402C613.5 413.174 611.619 423.22 608.635 430.417C607.142 434.019 605.402 436.835 603.546 438.728C601.695 440.616 599.822 441.5 598 441.5C596.178 441.5 594.305 440.616 592.454 438.728C590.598 436.835 588.858 434.019 587.365 430.417C584.381 423.22 582.5 413.174 582.5 402C582.5 390.826 584.381 380.78 587.365 373.583C588.858 369.981 590.598 367.165 592.454 365.272C594.305 363.384 596.178 362.5 598 362.5C599.822 362.5 601.695 363.384 603.546 365.272C605.402 367.165 607.142 369.981 608.635 373.583C611.619 380.78 613.5 390.826 613.5 402Z" fill="#0D2B52" stroke="#FF5200" stroke-width="3"/>
<path d="M613.5 298C613.5 309.174 611.619 319.22 608.635 326.417C607.142 330.019 605.402 332.835 603.546 334.728C601.695 336.616 599.822 337.5 598 337.5C596.178 337.5 594.305 336.616 592.454 334.728C590.598 332.835 588.858 330.019 587.365 326.417C584.381 319.22 582.5 309.174 582.5 298C582.5 286.826 584.381 276.78 587.365 269.583C588.858 265.981 590.598 263.165 592.454 261.272C594.305 259.384 596.178 258.5 598 258.5C599.822 258.5 601.695 259.384 603.546 261.272C605.402 263.165 607.142 265.981 608.635 269.583C611.619 276.78 613.5 286.826 613.5 298Z" fill="#0D2B52" stroke="#FF5200" stroke-width="3"/>
<path d="M756.5 298C756.5 309.174 754.619 319.22 751.635 326.417C750.142 330.019 748.402 332.835 746.546 334.728C744.695 336.616 742.822 337.5 741 337.5C739.178 337.5 737.305 336.616 735.454 334.728C733.598 332.835 731.858 330.019 730.365 326.417C727.381 319.22 725.5 309.174 725.5 298C725.5 286.826 727.381 276.78 730.365 269.583C731.858 265.981 733.598 263.165 735.454 261.272C737.305 259.384 739.178 258.5 741 258.5C742.822 258.5 744.695 259.384 746.546 261.272C748.402 263.165 750.142 265.981 751.635 269.583C754.619 276.78 756.5 286.826 756.5 298Z" fill="#0D2B52" stroke="#FF5200" stroke-width="3"/>
<rect x="399" y="245" width="153" height="210" rx="21" fill="#FF5200"/>
<path d="M562.5 402C562.5 413.174 560.619 423.22 557.635 430.417C556.142 434.019 554.402 436.835 552.546 438.728C550.695 440.616 548.822 441.5 547 441.5C545.178 441.5 543.305 440.616 541.454 438.728C539.598 436.835 537.858 434.019 536.365 430.417C533.381 423.22 531.5 413.174 531.5 402C531.5 390.826 533.381 380.78 536.365 373.583C537.858 369.981 539.598 367.165 541.454 365.272C543.305 363.384 545.178 362.5 547 362.5C548.822 362.5 550.695 363.384 552.546 365.272C554.402 367.165 556.142 369.981 557.635 373.583C560.619 380.78 562.5 390.826 562.5 402Z" fill="#0D2B52" stroke="#A6FF47" stroke-width="3"/>
<path d="M419.5 402C419.5 413.174 417.619 423.22 414.635 430.417C413.142 434.019 411.402 436.835 409.546 438.728C407.695 440.616 405.822 441.5 404 441.5C402.178 441.5 400.305 440.616 398.454 438.728C396.598 436.835 394.858 434.019 393.365 430.417C390.381 423.22 388.5 413.174 388.5 402C388.5 390.826 390.381 380.78 393.365 373.583C394.858 369.981 396.598 367.165 398.454 365.272C400.305 363.384 402.178 362.5 404 362.5C405.822 362.5 407.695 363.384 409.546 365.272C411.402 367.165 413.142 369.981 414.635 373.583C417.619 380.78 419.5 390.826 419.5 402Z" fill="#0D2B52" stroke="#A6FF47" stroke-width="3"/>
<path d="M419.5 298C419.5 309.174 417.619 319.22 414.635 326.417C413.142 330.019 411.402 332.835 409.546 334.728C407.695 336.616 405.822 337.5 404 337.5C402.178 337.5 400.305 336.616 398.454 334.728C396.598 332.835 394.858 330.019 393.365 326.417C390.381 319.22 388.5 309.174 388.5 298C388.5 286.826 390.381 276.78 393.365 269.583C394.858 265.981 396.598 263.165 398.454 261.272C400.305 259.384 402.178 258.5 404 258.5C405.822 258.5 407.695 259.384 409.546 261.272C411.402 263.165 413.142 265.981 414.635 269.583C417.619 276.78 419.5 286.826 419.5 298Z" fill="#0D2B52" stroke="#A6FF47" stroke-width="3"/>
<path d="M562.5 298C562.5 309.174 560.619 319.22 557.635 326.417C556.142 330.019 554.402 332.835 552.546 334.728C550.695 336.616 548.822 337.5 547 337.5C545.178 337.5 543.305 336.616 541.454 334.728C539.598 332.835 537.858 330.019 536.365 326.417C533.381 319.22 531.5 309.174 531.5 298C531.5 286.826 533.381 276.78 536.365 269.583C537.858 265.981 539.598 263.165 541.454 261.272C543.305 259.384 545.178 258.5 547 258.5C548.822 258.5 550.695 259.384 552.546 261.272C554.402 263.165 556.142 265.981 557.635 269.583C560.619 276.78 562.5 286.826 562.5 298Z" fill="#0D2B52" stroke="#A6FF47" stroke-width="3"/>
<rect x="205" y="245" width="153" height="210" rx="21" fill="#A6FF47"/>
<path d="M368.5 402C368.5 413.174 366.619 423.22 363.635 430.417C362.142 434.019 360.402 436.835 358.546 438.728C356.695 440.616 354.822 441.5 353 441.5C351.178 441.5 349.305 440.616 347.454 438.728C345.598 436.835 343.858 434.019 342.365 430.417C339.381 423.22 337.5 413.174 337.5 402C337.5 390.826 339.381 380.78 342.365 373.583C343.858 369.981 345.598 367.165 347.454 365.272C349.305 363.384 351.178 362.5 353 362.5C354.822 362.5 356.695 363.384 358.546 365.272C360.402 367.165 362.142 369.981 363.635 373.583C366.619 380.78 368.5 390.826 368.5 402Z" fill="#0D2B52" stroke="#FF5200" stroke-width="3"/>
<path d="M225.5 402C225.5 413.174 223.619 423.22 220.635 430.417C219.142 434.019 217.402 436.835 215.546 438.728C213.695 440.616 211.822 441.5 210 441.5C208.178 441.5 206.305 440.616 204.454 438.728C202.598 436.835 200.858 434.019 199.365 430.417C196.381 423.22 194.5 413.174 194.5 402C194.5 390.826 196.381 380.78 199.365 373.583C200.858 369.981 202.598 367.165 204.454 365.272C206.305 363.384 208.178 362.5 210 362.5C211.822 362.5 213.695 363.384 215.546 365.272C217.402 367.165 219.142 369.981 220.635 373.583C223.619 380.78 225.5 390.826 225.5 402Z" fill="#0D2B52" stroke="#FF5200" stroke-width="3"/>
<path d="M225.5 298C225.5 309.174 223.619 319.22 220.635 326.417C219.142 330.019 217.402 332.835 215.546 334.728C213.695 336.616 211.822 337.5 210 337.5C208.178 337.5 206.305 336.616 204.454 334.728C202.598 332.835 200.858 330.019 199.365 326.417C196.381 319.22 194.5 309.174 194.5 298C194.5 286.826 196.381 276.78 199.365 269.583C200.858 265.981 202.598 263.165 204.454 261.272C206.305 259.384 208.178 258.5 210 258.5C211.822 258.5 213.695 259.384 215.546 261.272C217.402 263.165 219.142 265.981 220.635 269.583C223.619 276.78 225.5 286.826 225.5 298Z" fill="#0D2B52" stroke="#FF5200" stroke-width="3"/>
<path d="M368.5 298C368.5 309.174 366.619 319.22 363.635 326.417C362.142 330.019 360.402 332.835 358.546 334.728C356.695 336.616 354.822 337.5 353 337.5C351.178 337.5 349.305 336.616 347.454 334.728C345.598 332.835 343.858 330.019 342.365 326.417C339.381 319.22 337.5 309.174 337.5 298C337.5 286.826 339.381 276.78 342.365 269.583C343.858 265.981 345.598 263.165 347.454 261.272C349.305 259.384 351.178 258.5 353 258.5C354.822 258.5 356.695 259.384 358.546 261.272C360.402 263.165 362.142 265.981 363.635 269.583C366.619 276.78 368.5 286.826 368.5 298Z" fill="#0D2B52" stroke="#FF5200" stroke-width="3"/>
<rect x="11" y="245" width="153" height="210" rx="21" fill="#FF5200"/>
<path d="M175.5 402C175.5 413.174 173.619 423.22 170.635 430.417C169.142 434.019 167.402 436.835 165.546 438.728C163.695 440.616 161.822 441.5 160 441.5C158.178 441.5 156.305 440.616 154.454 438.728C152.598 436.835 150.858 434.019 149.365 430.417C146.381 423.22 144.5 413.174 144.5 402C144.5 390.826 146.381 380.78 149.365 373.583C150.858 369.981 152.598 367.165 154.454 365.272C156.305 363.384 158.178 362.5 160 362.5C161.822 362.5 163.695 363.384 165.546 365.272C167.402 367.165 169.142 369.981 170.635 373.583C173.619 380.78 175.5 390.826 175.5 402Z" fill="#0D2B52" stroke="#A6FF47" stroke-width="3"/>
<path d="M32.5 402C32.5 413.174 30.6192 423.22 27.6352 430.417C26.1418 434.019 24.4016 436.835 22.546 438.728C20.6954 440.616 18.822 441.5 17 441.5C15.178 441.5 13.3046 440.616 11.454 438.728C9.59837 436.835 7.8582 434.019 6.3648 430.417C3.38079 423.22 1.5 413.174 1.5 402C1.5 390.826 3.38079 380.78 6.3648 373.583C7.8582 369.981 9.59837 367.165 11.454 365.272C13.3046 363.384 15.178 362.5 17 362.5C18.822 362.5 20.6954 363.384 22.546 365.272C24.4016 367.165 26.1418 369.981 27.6352 373.583C30.6192 380.78 32.5 390.826 32.5 402Z" fill="#0D2B52" stroke="#A6FF47" stroke-width="3"/>
<path d="M32.5 298C32.5 309.174 30.6192 319.22 27.6352 326.417C26.1418 330.019 24.4016 332.835 22.546 334.728C20.6954 336.616 18.822 337.5 17 337.5C15.178 337.5 13.3046 336.616 11.454 334.728C9.59837 332.835 7.8582 330.019 6.3648 326.417C3.38079 319.22 1.5 309.174 1.5 298C1.5 286.826 3.38079 276.78 6.3648 269.583C7.8582 265.981 9.59837 263.165 11.454 261.272C13.3046 259.384 15.178 258.5 17 258.5C18.822 258.5 20.6954 259.384 22.546 261.272C24.4016 263.165 26.1418 265.981 27.6352 269.583C30.6192 276.78 32.5 286.826 32.5 298Z" fill="#0D2B52" stroke="#A6FF47" stroke-width="3"/>
<path d="M175.5 298C175.5 309.174 173.619 319.22 170.635 326.417C169.142 330.019 167.402 332.835 165.546 334.728C163.695 336.616 161.822 337.5 160 337.5C158.178 337.5 156.305 336.616 154.454 334.728C152.598 332.835 150.858 330.019 149.365 326.417C146.381 319.22 144.5 309.174 144.5 298C144.5 286.826 146.381 276.78 149.365 269.583C150.858 265.981 152.598 263.165 154.454 261.272C156.305 259.384 158.178 258.5 160 258.5C161.822 258.5 163.695 259.384 165.546 261.272C167.402 263.165 169.142 265.981 170.635 269.583C173.619 276.78 175.5 286.826 175.5 298Z" fill="#0D2B52" stroke="#A6FF47" stroke-width="3"/>
<rect x="399" width="153" height="210" rx="21" fill="#A6FF47"/>
<path d="M562.5 155C562.5 166.174 560.619 176.22 557.635 183.417C556.142 187.019 554.402 189.835 552.546 191.728C550.695 193.616 548.822 194.5 547 194.5C545.178 194.5 543.305 193.616 541.454 191.728C539.598 189.835 537.858 187.019 536.365 183.417C533.381 176.22 531.5 166.174 531.5 155C531.5 143.826 533.381 133.78 536.365 126.583C537.858 122.981 539.598 120.165 541.454 118.272C543.305 116.384 545.178 115.5 547 115.5C548.822 115.5 550.695 116.384 552.546 118.272C554.402 120.165 556.142 122.981 557.635 126.583C560.619 133.78 562.5 143.826 562.5 155Z" fill="#0D2B52" stroke="#FF5200" stroke-width="3"/>
<path d="M419.5 155C419.5 166.174 417.619 176.22 414.635 183.417C413.142 187.019 411.402 189.835 409.546 191.728C407.695 193.616 405.822 194.5 404 194.5C402.178 194.5 400.305 193.616 398.454 191.728C396.598 189.835 394.858 187.019 393.365 183.417C390.381 176.22 388.5 166.174 388.5 155C388.5 143.826 390.381 133.78 393.365 126.583C394.858 122.981 396.598 120.165 398.454 118.272C400.305 116.384 402.178 115.5 404 115.5C405.822 115.5 407.695 116.384 409.546 118.272C411.402 120.165 413.142 122.981 414.635 126.583C417.619 133.78 419.5 143.826 419.5 155Z" fill="#0D2B52" stroke="#FF5200" stroke-width="3"/>
<path d="M419.5 51C419.5 62.1741 417.619 72.2201 414.635 79.4169C413.142 83.0186 411.402 85.8351 409.546 87.728C407.695 89.6158 405.822 90.5 404 90.5C402.178 90.5 400.305 89.6158 398.454 87.728C396.598 85.8351 394.858 83.0186 393.365 79.4169C390.381 72.2201 388.5 62.1741 388.5 51C388.5 39.8259 390.381 29.7799 393.365 22.5831C394.858 18.9814 396.598 16.1649 398.454 14.272C400.305 12.3842 402.178 11.5 404 11.5C405.822 11.5 407.695 12.3842 409.546 14.272C411.402 16.1649 413.142 18.9814 414.635 22.5831C417.619 29.7799 419.5 39.8259 419.5 51Z" fill="#0D2B52" stroke="#FF5200" stroke-width="3"/>
<path d="M562.5 51C562.5 62.1741 560.619 72.2201 557.635 79.4169C556.142 83.0186 554.402 85.8351 552.546 87.728C550.695 89.6158 548.822 90.5 547 90.5C545.178 90.5 543.305 89.6158 541.454 87.728C539.598 85.8351 537.858 83.0186 536.365 79.4169C533.381 72.2201 531.5 62.1741 531.5 51C531.5 39.8259 533.381 29.7799 536.365 22.5831C537.858 18.9814 539.598 16.1649 541.454 14.272C543.305 12.3842 545.178 11.5 547 11.5C548.822 11.5 550.695 12.3842 552.546 14.272C554.402 16.1649 556.142 18.9814 557.635 22.5831C560.619 29.7799 562.5 39.8259 562.5 51Z" fill="#0D2B52" stroke="#FF5200" stroke-width="3"/>
<rect x="205" width="153" height="210" rx="21" fill="#FF5200"/>
<path d="M368.5 155C368.5 166.174 366.619 176.22 363.635 183.417C362.142 187.019 360.402 189.835 358.546 191.728C356.695 193.616 354.822 194.5 353 194.5C351.178 194.5 349.305 193.616 347.454 191.728C345.598 189.835 343.858 187.019 342.365 183.417C339.381 176.22 337.5 166.174 337.5 155C337.5 143.826 339.381 133.78 342.365 126.583C343.858 122.981 345.598 120.165 347.454 118.272C349.305 116.384 351.178 115.5 353 115.5C354.822 115.5 356.695 116.384 358.546 118.272C360.402 120.165 362.142 122.981 363.635 126.583C366.619 133.78 368.5 143.826 368.5 155Z" fill="#0D2B52" stroke="#A6FF47" stroke-width="3"/>
<path d="M225.5 155C225.5 166.174 223.619 176.22 220.635 183.417C219.142 187.019 217.402 189.835 215.546 191.728C213.695 193.616 211.822 194.5 210 194.5C208.178 194.5 206.305 193.616 204.454 191.728C202.598 189.835 200.858 187.019 199.365 183.417C196.381 176.22 194.5 166.174 194.5 155C194.5 143.826 196.381 133.78 199.365 126.583C200.858 122.981 202.598 120.165 204.454 118.272C206.305 116.384 208.178 115.5 210 115.5C211.822 115.5 213.695 116.384 215.546 118.272C217.402 120.165 219.142 122.981 220.635 126.583C223.619 133.78 225.5 143.826 225.5 155Z" fill="#0D2B52" stroke="#A6FF47" stroke-width="3"/>
<path d="M225.5 51C225.5 62.1741 223.619 72.2201 220.635 79.4169C219.142 83.0186 217.402 85.8351 215.546 87.728C213.695 89.6158 211.822 90.5 210 90.5C208.178 90.5 206.305 89.6158 204.454 87.728C202.598 85.8351 200.858 83.0186 199.365 79.4169C196.381 72.2201 194.5 62.1741 194.5 51C194.5 39.8259 196.381 29.7799 199.365 22.5831C200.858 18.9814 202.598 16.1649 204.454 14.272C206.305 12.3842 208.178 11.5 210 11.5C211.822 11.5 213.695 12.3842 215.546 14.272C217.402 16.1649 219.142 18.9814 220.635 22.5831C223.619 29.7799 225.5 39.8259 225.5 51Z" fill="#0D2B52" stroke="#A6FF47" stroke-width="3"/>
<path d="M368.5 51C368.5 62.1741 366.619 72.2201 363.635 79.4169C362.142 83.0186 360.402 85.8351 358.546 87.728C356.695 89.6158 354.822 90.5 353 90.5C351.178 90.5 349.305 89.6158 347.454 87.728C345.598 85.8351 343.858 83.0186 342.365 79.4169C339.381 72.2201 337.5 62.1741 337.5 51C337.5 39.8259 339.381 29.7799 342.365 22.5831C343.858 18.9814 345.598 16.1649 347.454 14.272C349.305 12.3842 351.178 11.5 353 11.5C354.822 11.5 356.695 12.3842 358.546 14.272C360.402 16.1649 362.142 18.9814 363.635 22.5831C366.619 29.7799 368.5 39.8259 368.5 51Z" fill="#0D2B52" stroke="#A6FF47" stroke-width="3"/>
<rect x="593" width="153" height="210" rx="21" fill="#FF5200"/>
<path d="M756.5 155C756.5 166.174 754.619 176.22 751.635 183.417C750.142 187.019 748.402 189.835 746.546 191.728C744.695 193.616 742.822 194.5 741 194.5C739.178 194.5 737.305 193.616 735.454 191.728C733.598 189.835 731.858 187.019 730.365 183.417C727.381 176.22 725.5 166.174 725.5 155C725.5 143.826 727.381 133.78 730.365 126.583C731.858 122.981 733.598 120.165 735.454 118.272C737.305 116.384 739.178 115.5 741 115.5C742.822 115.5 744.695 116.384 746.546 118.272C748.402 120.165 750.142 122.981 751.635 126.583C754.619 133.78 756.5 143.826 756.5 155Z" fill="#0D2B52" stroke="#A6FF47" stroke-width="3"/>
<path d="M613.5 155C613.5 166.174 611.619 176.22 608.635 183.417C607.142 187.019 605.402 189.835 603.546 191.728C601.695 193.616 599.822 194.5 598 194.5C596.178 194.5 594.305 193.616 592.454 191.728C590.598 189.835 588.858 187.019 587.365 183.417C584.381 176.22 582.5 166.174 582.5 155C582.5 143.826 584.381 133.78 587.365 126.583C588.858 122.981 590.598 120.165 592.454 118.272C594.305 116.384 596.178 115.5 598 115.5C599.822 115.5 601.695 116.384 603.546 118.272C605.402 120.165 607.142 122.981 608.635 126.583C611.619 133.78 613.5 143.826 613.5 155Z" fill="#0D2B52" stroke="#A6FF47" stroke-width="3"/>
<path d="M613.5 51C613.5 62.1741 611.619 72.2201 608.635 79.4169C607.142 83.0186 605.402 85.8351 603.546 87.728C601.695 89.6158 599.822 90.5 598 90.5C596.178 90.5 594.305 89.6158 592.454 87.728C590.598 85.8351 588.858 83.0186 587.365 79.4169C584.381 72.2201 582.5 62.1741 582.5 51C582.5 39.8259 584.381 29.7799 587.365 22.5831C588.858 18.9814 590.598 16.1649 592.454 14.272C594.305 12.3842 596.178 11.5 598 11.5C599.822 11.5 601.695 12.3842 603.546 14.272C605.402 16.1649 607.142 18.9814 608.635 22.5831C611.619 29.7799 613.5 39.8259 613.5 51Z" fill="#0D2B52" stroke="#A6FF47" stroke-width="3"/>
<path d="M756.5 51C756.5 62.1741 754.619 72.2201 751.635 79.4169C750.142 83.0186 748.402 85.8351 746.546 87.728C744.695 89.6158 742.822 90.5 741 90.5C739.178 90.5 737.305 89.6158 735.454 87.728C733.598 85.8351 731.858 83.0186 730.365 79.4169C727.381 72.2201 725.5 62.1741 725.5 51C725.5 39.8259 727.381 29.7799 730.365 22.5831C731.858 18.9814 733.598 16.1649 735.454 14.272C737.305 12.3842 739.178 11.5 741 11.5C742.822 11.5 744.695 12.3842 746.546 14.272C748.402 16.1649 750.142 18.9814 751.635 22.5831C754.619 29.7799 756.5 39.8259 756.5 51Z" fill="#0D2B52" stroke="#A6FF47" stroke-width="3"/>
<rect x="787" width="153" height="210" rx="21" fill="#A6FF47"/>
<path d="M950.5 157C950.5 168.174 948.619 178.22 945.635 185.417C944.142 189.019 942.402 191.835 940.546 193.728C938.695 195.616 936.822 196.5 935 196.5C933.178 196.5 931.305 195.616 929.454 193.728C927.598 191.835 925.858 189.019 924.365 185.417C921.381 178.22 919.5 168.174 919.5 157C919.5 145.826 921.381 135.78 924.365 128.583C925.858 124.981 927.598 122.165 929.454 120.272C931.305 118.384 933.178 117.5 935 117.5C936.822 117.5 938.695 118.384 940.546 120.272C942.402 122.165 944.142 124.981 945.635 128.583C948.619 135.78 950.5 145.826 950.5 157Z" fill="#0D2B52" stroke="#FF5200" stroke-width="3"/>
<path d="M807.5 157C807.5 168.174 805.619 178.22 802.635 185.417C801.142 189.019 799.402 191.835 797.546 193.728C795.695 195.616 793.822 196.5 792 196.5C790.178 196.5 788.305 195.616 786.454 193.728C784.598 191.835 782.858 189.019 781.365 185.417C778.381 178.22 776.5 168.174 776.5 157C776.5 145.826 778.381 135.78 781.365 128.583C782.858 124.981 784.598 122.165 786.454 120.272C788.305 118.384 790.178 117.5 792 117.5C793.822 117.5 795.695 118.384 797.546 120.272C799.402 122.165 801.142 124.981 802.635 128.583C805.619 135.78 807.5 145.826 807.5 157Z" fill="#0D2B52" stroke="#FF5200" stroke-width="3"/>
<path d="M807.5 53C807.5 64.1741 805.619 74.2201 802.635 81.4169C801.142 85.0186 799.402 87.8351 797.546 89.728C795.695 91.6158 793.822 92.5 792 92.5C790.178 92.5 788.305 91.6158 786.454 89.728C784.598 87.8351 782.858 85.0186 781.365 81.4169C778.381 74.2201 776.5 64.1741 776.5 53C776.5 41.8259 778.381 31.7799 781.365 24.5831C782.858 20.9814 784.598 18.1649 786.454 16.272C788.305 14.3842 790.178 13.5 792 13.5C793.822 13.5 795.695 14.3842 797.546 16.272C799.402 18.1649 801.142 20.9814 802.635 24.5831C805.619 31.7799 807.5 41.8259 807.5 53Z" fill="#0D2B52" stroke="#FF5200" stroke-width="3"/>
<path d="M950.5 53C950.5 64.1741 948.619 74.2201 945.635 81.4169C944.142 85.0186 942.402 87.8351 940.546 89.728C938.695 91.6158 936.822 92.5 935 92.5C933.178 92.5 931.305 91.6158 929.454 89.728C927.598 87.8351 925.858 85.0186 924.365 81.4169C921.381 74.2201 919.5 64.1741 919.5 53C919.5 41.8259 921.381 31.7799 924.365 24.5831C925.858 20.9814 927.598 18.1649 929.454 16.272C931.305 14.3842 933.178 13.5 935 13.5C936.822 13.5 938.695 14.3842 940.546 16.272C942.402 18.1649 944.142 20.9814 945.635 24.5831C948.619 31.7799 950.5 41.8259 950.5 53Z" fill="#0D2B52" stroke="#FF5200" stroke-width="3"/>
</svg>
