<svg width="1175" height="597" viewBox="0 0 1175 597" fill="none" xmlns="http://www.w3.org/2000/svg">
<path d="M195.613 97.804C195.613 151.82 151.823 195.608 97.8064 195.608C43.7894 195.608 0 151.82 0 97.804C0 43.7884 43.7894 0 97.8064 0C151.823 0 195.613 43.7884 195.613 97.804Z" fill="#FF5200"/>
<path fill-rule="evenodd" clip-rule="evenodd" d="M97.8064 191.226C149.541 191.226 191.323 149.312 191.323 97.804C191.323 46.2963 149.541 4.38223 97.8064 4.38223C46.0718 4.38223 4.28975 46.2963 4.28975 97.804C4.28975 149.312 46.0718 191.226 97.8064 191.226ZM97.8064 195.608C151.823 195.608 195.613 151.82 195.613 97.804C195.613 43.7884 151.823 0 97.8064 0C43.7894 0 0 43.7884 0 97.804C0 151.82 43.7894 195.608 97.8064 195.608Z" fill="#A6FF47"/>
<path fill-rule="evenodd" clip-rule="evenodd" d="M93.2513 68.3819C99.1434 85.7307 104.823 102.453 107.51 116.997C101.123 117.376 93.8961 117.643 86.4789 117.916C68.771 118.57 49.9802 119.264 38.9578 121.614C41.9601 110.807 46.2795 98.4456 50.8852 85.2641C60.0072 59.1574 70.2526 29.8359 73.6134 3.01507C31.2977 13.7821 0 52.1382 0 97.804C0 131.104 16.6425 160.517 42.0639 178.18C61.0895 174.998 78.2903 174.768 101.326 174.461C106.688 174.389 112.367 174.313 118.458 174.195L123.586 192.175C147.89 185.551 168.425 169.791 181.274 148.813L137.131 8.22671C125.097 2.93652 111.795 0 97.8064 0C90.1256 0 82.6516 0.885332 75.481 2.55951C77.9747 23.4015 85.7839 46.3949 93.2513 68.3819Z" fill="#A6FF47"/>
<path d="M586.838 97.804C586.838 151.82 543.049 195.608 489.032 195.608C435.015 195.608 391.226 151.82 391.226 97.804C391.226 43.7884 435.015 0 489.032 0C543.049 0 586.838 43.7884 586.838 97.804Z" fill="#FF5200"/>
<path fill-rule="evenodd" clip-rule="evenodd" d="M489.032 191.226C540.767 191.226 582.549 149.312 582.549 97.804C582.549 46.2963 540.767 4.38223 489.032 4.38223C437.297 4.38223 395.515 46.2963 395.515 97.804C395.515 149.312 437.297 191.226 489.032 191.226ZM489.032 195.608C543.049 195.608 586.838 151.82 586.838 97.804C586.838 43.7884 543.049 0 489.032 0C435.015 0 391.226 43.7884 391.226 97.804C391.226 151.82 435.015 195.608 489.032 195.608Z" fill="#A6FF47"/>
<path fill-rule="evenodd" clip-rule="evenodd" d="M568.158 40.3035C566.629 43.1929 565.079 46.1096 563.508 49.0659C557.639 60.1121 551.477 71.7094 544.976 84.4912C542.957 88.4602 540.996 92.3206 539.09 96.0716C526.155 121.527 515.78 141.946 507.416 157.105C498.447 173.347 489.496 185.826 480.659 195.254C466.472 194.052 453.149 189.821 441.337 183.211C449.802 177.913 458.295 164.615 462.923 157.369C463.615 156.286 464.22 155.338 464.726 154.572C464.627 154.509 464.529 154.446 464.43 154.383C450.227 145.308 439.094 138.195 425.286 23.6244C437.178 13.3959 451.557 5.97798 467.393 2.40161C469.732 52.924 477.353 97.7456 486.898 113.875C487.121 113.407 487.351 112.925 487.587 112.43C493.841 99.3172 504.718 76.5128 516.516 53.0813C525.597 35.1879 531.796 22.0812 536.306 12.1626C548.875 19.1149 559.75 28.7534 568.158 40.3035Z" fill="#A6FF47"/>
<path d="M195.613 498.871C195.613 552.887 151.823 596.675 97.8064 596.675C43.7894 596.675 0 552.887 0 498.871C0 444.855 43.7894 401.067 97.8064 401.067C151.823 401.067 195.613 444.855 195.613 498.871Z" fill="#FF5200"/>
<path fill-rule="evenodd" clip-rule="evenodd" d="M97.8064 592.293C149.541 592.293 191.323 550.379 191.323 498.871C191.323 447.363 149.541 405.449 97.8064 405.449C46.0718 405.449 4.28975 447.363 4.28975 498.871C4.28975 550.379 46.0718 592.293 97.8064 592.293ZM97.8064 596.675C151.823 596.675 195.613 552.887 195.613 498.871C195.613 444.855 151.823 401.067 97.8064 401.067C43.7894 401.067 0 444.855 0 498.871C0 552.887 43.7894 596.675 97.8064 596.675Z" fill="#A6FF47"/>
<path fill-rule="evenodd" clip-rule="evenodd" d="M25.7368 564.992C26.2649 561.936 26.8443 558.759 27.4771 555.456C38.3499 498.477 55.195 481.102 83.0662 481.102C89.0385 481.102 93.4795 486.581 93.4795 486.581L97.308 465.918C100.983 446.352 103.28 437.899 106.803 431.168L107.415 429.916L142.484 445.569C142.484 445.569 141.412 446.821 140.493 448.074C138.655 450.422 136.511 457.309 134.674 467.171L130.692 487.677C130.692 487.677 137.736 481.102 145.24 481.102H146.465C165.608 481.102 174.949 488.929 174.949 513.661C174.949 524.305 173.264 537.924 169.895 555.456C169.087 559.701 168.256 563.741 167.405 567.587C155.79 579.349 141.215 588.182 124.889 592.877C126.838 585.354 129.173 574.39 132.223 558.43C135.592 540.898 137.124 530.254 137.124 523.679C137.124 515.853 134.827 514.131 131.151 514.131C126.557 514.131 124.107 522.897 124.107 522.897L110.126 595.906C106.091 596.414 101.979 596.675 97.8058 596.675C89.2197 596.675 80.8919 595.569 72.9573 593.491C74.7301 584.218 76.7542 573.789 78.7783 563.36C81.6114 548.764 84.4444 534.167 86.5883 522.74C86.5883 522.74 85.2101 514.131 81.841 514.131C75.4093 514.131 71.7339 517.261 63.7708 558.743C61.3292 571.667 59.682 581.343 58.7162 588.551C46.1187 583.053 34.9036 574.978 25.7368 564.992Z" fill="#A6FF47"/>
<path d="M586.838 499.191C586.838 553.207 543.049 596.995 489.032 596.995C435.015 596.995 391.226 553.207 391.226 499.191C391.226 445.176 435.015 401.387 489.032 401.387C543.049 401.387 586.838 445.176 586.838 499.191Z" fill="#FF5200"/>
<path fill-rule="evenodd" clip-rule="evenodd" d="M489.032 592.613C540.767 592.613 582.549 550.699 582.549 499.191C582.549 447.684 540.767 405.769 489.032 405.769C437.297 405.769 395.515 447.684 395.515 499.191C395.515 550.699 437.297 592.613 489.032 592.613ZM489.032 596.995C543.049 596.995 586.838 553.207 586.838 499.191C586.838 445.176 543.049 401.387 489.032 401.387C435.015 401.387 391.226 445.176 391.226 499.191C391.226 553.207 435.015 596.995 489.032 596.995Z" fill="#A6FF47"/>
<path fill-rule="evenodd" clip-rule="evenodd" d="M509.001 561.012C511.638 570.049 517.1 575.818 523.126 579.471C522.311 583.634 521.61 587.698 521.013 591.647C542.246 584.304 560.162 569.853 571.916 551.14C573.426 543.6 574.731 537.17 574.731 537.17L554.579 537.362L571.647 446.817C562.748 432.81 550.385 421.219 535.763 413.252C534.301 420.933 532.904 428.241 531.508 435.549C528.494 451.316 525.481 467.083 521.808 486.6C510.884 526.979 500.903 540.823 496.382 540.823C494.499 540.823 494.122 539.669 494.122 536.977C494.122 535.439 494.311 533.324 494.876 530.825C499.49 506.502 504.151 482.132 508.812 457.762C512.115 440.492 515.418 423.222 518.705 405.969C509.346 402.993 499.376 401.387 489.032 401.387C484.934 401.387 480.896 401.639 476.931 402.128C474.636 413.914 472.561 424.636 470.486 435.358C467.426 451.173 464.365 466.988 460.598 486.216C450.428 520.249 440.07 540.823 435.926 540.823C433.666 540.823 432.724 539.477 432.724 535.439C432.724 534.093 432.724 532.363 433.101 530.44C436.303 513.519 441.624 485.493 446.944 457.468C450.324 439.668 453.703 421.868 456.539 406.914C436.704 413.898 419.798 427.096 408.158 444.171C407.436 447.944 406.708 451.746 405.98 455.548C401.351 479.732 396.722 503.916 393.565 520.551C398.739 543.775 412.17 563.887 430.619 577.644C440.64 572.654 448.213 561.705 456.078 547.168C456.078 547.745 456.031 548.37 455.984 548.995C455.937 549.62 455.89 550.245 455.89 550.822C455.89 564.089 460.975 580.625 479.997 580.625C495.629 580.625 502.974 571.78 509.001 561.012Z" fill="#A6FF47"/>
<circle cx="881.528" cy="499.194" r="97.8064" fill="#FF5200"/>
<path fill-rule="evenodd" clip-rule="evenodd" d="M864.488 576.343C849.651 576.343 833.655 569.411 833.655 546.766C833.655 521.348 858.924 511.412 874.225 511.412C889.063 511.412 904.827 519.268 913.173 528.973V539.834C909 552.774 889.99 576.343 864.488 576.343ZM972.522 535.126C958.201 571.364 922.858 597 881.527 597C830.354 597 788.359 557.699 784.08 507.633C786.759 503.144 789.916 498.979 793.547 495.237C815.572 472.823 841.305 465.198 874.225 465.198C889.063 465.198 904.364 470.05 913.173 476.058C913.173 437.7 886.281 430.537 872.371 430.537C845.71 430.537 823.918 438.162 806.762 456.186L800.14 444.933C817.679 418.678 847.584 401.387 881.527 401.387C922.688 401.387 957.91 426.813 972.345 462.815C972.463 464.734 972.522 466.683 972.522 468.664V535.126Z" fill="#A6FF47"/>
<path fill-rule="evenodd" clip-rule="evenodd" d="M881.528 592.613C933.262 592.613 975.044 550.699 975.044 499.191C975.044 447.684 933.262 405.769 881.528 405.769C829.793 405.769 788.011 447.684 788.011 499.191C788.011 550.699 829.793 592.613 881.528 592.613ZM881.528 596.995C935.545 596.995 979.334 553.207 979.334 499.191C979.334 445.176 935.545 401.387 881.528 401.387C827.511 401.387 783.721 445.176 783.721 499.191C783.721 553.207 827.511 596.995 881.528 596.995Z" fill="#A6FF47"/>
<path d="M979.334 97.804C979.334 151.82 935.545 195.608 881.528 195.608C827.511 195.608 783.721 151.82 783.721 97.804C783.721 43.7884 827.511 0 881.528 0C935.545 0 979.334 43.7884 979.334 97.804Z" fill="#FF5200"/>
<path fill-rule="evenodd" clip-rule="evenodd" d="M881.528 191.226C933.262 191.226 975.044 149.312 975.044 97.804C975.044 46.2963 933.262 4.38223 881.528 4.38223C829.793 4.38223 788.011 46.2963 788.011 97.804C788.011 149.312 829.793 191.226 881.528 191.226ZM881.528 195.608C935.545 195.608 979.334 151.82 979.334 97.804C979.334 43.7884 935.545 0 881.528 0C827.511 0 783.721 43.7884 783.721 97.804C783.721 151.82 827.511 195.608 881.528 195.608Z" fill="#A6FF47"/>
<path fill-rule="evenodd" clip-rule="evenodd" d="M903.799 89.2769C919.232 74.3021 944.269 46.2677 951.128 30.9446C951.315 30.5179 951.497 30.0851 951.674 29.6469C941.734 19.4194 929.577 11.3583 915.978 6.23962C915.008 10.6904 913.521 16.454 911.344 20.3229C902.131 36.7614 895.14 44.2757 887.736 52.2348C885.493 54.6455 883.212 57.097 880.82 59.8496L841.446 8.56324C829.328 14.0138 818.522 21.8598 809.628 31.4981L855.784 87.7098L798.927 150.202C806.221 161.676 815.841 171.528 827.124 179.094L879.448 119.401C894.196 139.948 912.373 162.932 924.72 171.116C928.847 174.05 934.091 175.849 939.183 176.816C946.746 171.288 953.486 164.701 959.183 157.272L959.359 136.813C956.616 137.336 953.529 137.858 950.442 137.858C945.517 137.858 943.774 135.995 942.937 135.101C942.784 134.937 942.661 134.805 942.554 134.724C938.781 132.46 917.518 107.212 903.799 89.2769Z" fill="#A6FF47"/>
<circle cx="293.419" cy="303.581" r="97.8064" fill="#FF5200"/>
<path fill-rule="evenodd" clip-rule="evenodd" d="M300.067 205.997C298.598 255.869 287.776 304.438 272.495 337.4L334.8 337.165L334.194 214.653C367.852 230.111 391.226 264.117 391.226 303.581C391.226 338.146 373.295 368.524 346.228 385.919C310.786 386.109 250.159 386.536 250.159 386.536V390.298C250.159 390.637 250.16 390.98 250.161 391.325C227.751 380.256 210.191 360.853 201.531 337.165H206.663C228.342 302.162 236.322 274.275 238.927 222.349C254.499 211.882 273.246 205.774 293.419 205.774C295.653 205.774 297.87 205.849 300.067 205.997Z" fill="#A6FF47"/>
<path fill-rule="evenodd" clip-rule="evenodd" d="M293.419 397C345.154 397 386.936 355.086 386.936 303.578C386.936 252.071 345.154 210.157 293.419 210.157C241.685 210.157 199.903 252.071 199.903 303.578C199.903 355.086 241.685 397 293.419 397ZM293.419 401.382C347.436 401.382 391.226 357.594 391.226 303.578C391.226 249.563 347.436 205.774 293.419 205.774C239.402 205.774 195.613 249.563 195.613 303.578C195.613 357.594 239.402 401.382 293.419 401.382Z" fill="#A6FF47"/>
<circle cx="684.645" cy="303.581" r="97.8064" fill="#FF5200"/>
<path fill-rule="evenodd" clip-rule="evenodd" d="M612.776 369.921V237.24C624.161 224.913 638.677 215.521 655.062 210.328L654.912 290.99C670.055 287.531 679.93 286.213 699.682 286.213H714.001C714.001 260.12 713.949 245.731 713.903 233.233C713.875 225.597 713.85 218.667 713.841 210.206C730.125 215.293 744.581 224.522 755.973 236.66V370.502C744.618 382.6 730.22 391.808 714.001 396.905V321.629H708.734C684.704 321.629 674.334 322.123 654.912 326.406C654.912 359.789 655.022 375.776 655.115 389.236C655.133 391.838 655.151 394.346 655.166 396.867C638.739 391.68 624.185 382.275 612.776 369.921Z" fill="#A6FF47"/>
<path fill-rule="evenodd" clip-rule="evenodd" d="M684.645 397C736.379 397 778.161 355.086 778.161 303.578C778.161 252.071 736.379 210.157 684.645 210.157C632.91 210.157 591.128 252.071 591.128 303.578C591.128 355.086 632.91 397 684.645 397ZM684.645 401.382C738.662 401.382 782.451 357.594 782.451 303.578C782.451 249.563 738.662 205.774 684.645 205.774C630.628 205.774 586.838 249.563 586.838 303.578C586.838 357.594 630.628 401.382 684.645 401.382Z" fill="#A6FF47"/>
<circle cx="1077.14" cy="303.581" r="97.8064" fill="#FF5200"/>
<path fill-rule="evenodd" clip-rule="evenodd" d="M1110.49 308.595C1077.65 308.595 1054.44 309.588 1026.53 314.552C1028.01 285.762 1044.56 261.935 1069.75 261.935C1091.48 261.935 1109.26 276.082 1110.49 308.595ZM1173.8 318.61C1167.93 251.793 1138.8 211.552 1069.25 211.552C1053.77 211.552 1039.92 214.222 1027.74 219.15C998.779 236.132 979.334 267.585 979.334 303.581C979.334 342.982 1002.63 376.942 1036.2 392.434C1031.34 384.938 1027.89 376.127 1026.53 366.672C1049.78 362.091 1096.37 358.778 1158.75 357.514C1166.36 346.018 1171.61 332.818 1173.8 318.61Z" fill="#A6FF47"/>
<path fill-rule="evenodd" clip-rule="evenodd" d="M1077.14 397C1128.87 397 1170.66 355.086 1170.66 303.578C1170.66 252.071 1128.87 210.157 1077.14 210.157C1025.41 210.157 983.624 252.071 983.624 303.578C983.624 355.086 1025.41 397 1077.14 397ZM1077.14 401.382C1131.16 401.382 1174.95 357.594 1174.95 303.578C1174.95 249.563 1131.16 205.774 1077.14 205.774C1023.12 205.774 979.334 249.563 979.334 303.578C979.334 357.594 1023.12 401.382 1077.14 401.382Z" fill="#A6FF47"/>
</svg>
