<svg width="595" height="248" viewBox="0 0 595 248" fill="none" xmlns="http://www.w3.org/2000/svg">
<path d="M54.5664 52.0098V34.6074V24.8516C54.5664 18.9189 54.4346 13.3818 53.5117 9.69043L75.1328 8.50391V11.1406V20.501V52.9326C75.1328 52.9326 83.834 47.6592 93.1943 47.3955H94.249C117.848 47.3955 126.549 75.2129 126.549 110.018C126.549 158.138 109.41 182.923 91.2168 182.923C81.1973 182.923 75.1328 180.813 75.1328 180.813V201.907C75.1328 214.3 76.3193 225.11 77.2422 234.075L56.2803 235.262C55.0938 225.638 54.4346 213.245 54.4346 201.248V180.682C54.4346 180.682 49.1611 182.923 37.8232 182.923C16.334 182.923 3.94141 159.588 3.94141 110.018C3.94141 74.6855 15.4111 47.3955 39.4053 47.3955C46.7881 47.3955 54.5664 52.0098 54.5664 52.0098ZM24.6396 112.522C24.6396 148.909 30.9678 162.488 39.8008 162.488C48.2383 162.488 54.4346 158.138 54.4346 158.138C54.4346 138.89 54.5664 94.1973 54.5664 74.9492C54.5664 74.9492 47.3154 67.6982 39.4053 67.6982C29.5176 67.6982 24.6396 85.6279 24.6396 112.522ZM104.664 112.522C104.664 85.6279 101.896 67.6982 89.8984 67.6982C81.9883 67.6982 75.1328 75.0811 75.1328 75.0811V157.874C75.1328 157.874 80.8018 162.488 88.4482 162.488C96.0947 162.488 104.664 152.337 104.664 112.522Z" fill="#A6FF47"/>
<path fill-rule="evenodd" clip-rule="evenodd" d="M56.2803 235.262C55.0938 225.638 54.4346 213.245 54.4346 201.248V180.682C54.4346 180.682 53.4557 181.098 51.4346 181.571C48.7647 182.197 44.2762 182.923 37.8232 182.923C16.334 182.923 3.94141 159.588 3.94141 110.018C3.94141 74.6855 15.4111 47.3955 39.4053 47.3955C43.9418 47.3955 48.6276 49.1377 51.5664 50.481C53.4103 51.3239 54.5664 52.0097 54.5664 52.0097V24.8515C54.5664 20.3507 54.4905 16.0776 54.0509 12.6653C53.9111 11.5798 53.7344 10.5813 53.5117 9.69039L75.1328 8.50386V52.9326C75.1328 52.9326 76.2574 52.251 78.1328 51.3657C81.4742 49.7884 87.199 47.5644 93.1943 47.3955H94.249C117.848 47.3955 126.549 75.2128 126.549 110.018C126.549 158.138 109.41 182.923 91.2168 182.923C85.3678 182.923 80.8666 182.204 78.1328 181.606C76.1835 181.179 75.1328 180.813 75.1328 180.813V201.907C75.1328 212.953 76.0755 222.742 76.9339 231.088C76.9892 231.625 77.0441 232.157 77.0985 232.683C77.1469 233.152 77.1949 233.616 77.2422 234.075L56.2803 235.262ZM78.1328 184.672V201.907C78.1328 213.506 79.1865 223.703 80.085 232.398C80.1327 232.859 80.1798 233.316 80.2264 233.768L80.5481 236.893L53.6464 238.416L53.3028 235.629C52.0979 225.855 51.4346 213.336 51.4346 201.248V184.646C51.2878 184.678 51.1372 184.71 50.9826 184.741C48.0459 185.343 43.6913 185.923 37.8232 185.923C31.8742 185.923 26.4554 184.296 21.7299 180.951C17.0324 177.625 13.1743 172.711 10.1202 166.359C4.04564 153.725 0.941406 134.964 0.941406 110.018C0.941406 92.096 3.8398 75.9008 10.0161 64.0688C16.2511 52.124 26.0022 44.3955 39.4053 44.3955C43.654 44.3955 47.8583 45.7061 50.8741 46.9194C51.1109 47.0147 51.3419 47.1099 51.5664 47.2046V24.8515C51.5664 18.8319 51.4178 13.6841 50.6013 10.418L49.7203 6.89394L78.1328 5.33472V48.0698C78.5732 47.8766 79.0397 47.6792 79.5298 47.4813C83.0464 46.0608 87.9343 44.5424 93.1099 44.3967L93.1521 44.3955H94.249C107.577 44.3955 116.533 52.4006 121.981 64.416C127.365 76.2923 129.549 92.4479 129.549 110.018C129.549 134.388 125.216 153.149 118.348 165.935C111.498 178.689 101.833 185.923 91.2168 185.923C85.997 185.923 81.7871 185.373 78.8561 184.815C78.6057 184.767 78.3645 184.72 78.1328 184.672ZM54.5664 74.9492C54.5664 74.9492 47.3154 67.6982 39.4053 67.6982C29.5176 67.6982 24.6396 85.6279 24.6396 112.522C24.6396 148.909 30.9678 162.488 39.8008 162.488C48.2383 162.488 54.4346 158.138 54.4346 158.138C54.4346 148.514 54.4675 132.529 54.5005 116.543C54.5334 100.558 54.5664 84.5732 54.5664 74.9492ZM51.4349 156.442C50.8418 156.764 50.0617 157.154 49.1254 157.545C46.7711 158.528 43.513 159.488 39.8008 159.488C37.3852 159.488 34.3121 157.766 31.7497 150.189C29.2225 142.716 27.6396 130.618 27.6396 112.522C27.6396 99.1953 28.8551 88.3406 31.1776 80.9211C32.3408 77.2049 33.7175 74.5636 35.1796 72.9011C36.5823 71.306 37.968 70.6982 39.4053 70.6982C42.508 70.6982 45.709 72.1514 48.3224 73.8424C49.5922 74.664 50.6424 75.489 51.372 76.1064C51.4397 76.1636 51.5044 76.219 51.5662 76.2722C51.5635 85.9933 51.532 101.263 51.5005 116.537L51.5005 116.542C51.4694 131.619 51.4383 146.7 51.4349 156.442ZM75.1328 157.874C75.1328 157.874 80.8018 162.488 88.4482 162.488C96.0947 162.488 104.664 152.337 104.664 112.522C104.664 85.6279 101.896 67.6982 89.8984 67.6982C81.9883 67.6982 75.1328 75.081 75.1328 75.081V157.874ZM78.1328 76.3415V156.313C78.6692 156.654 79.3801 157.068 80.2347 157.483C82.3455 158.509 85.2182 159.488 88.4482 159.488C90.5816 159.488 93.8025 158.199 96.6501 151.292C99.5245 144.32 101.664 132.296 101.664 112.522C101.664 99.0839 100.962 88.2437 98.8908 80.8322C97.8577 77.1346 96.5558 74.5667 95.0661 72.9588C93.6703 71.4522 92.0377 70.6982 89.8984 70.6982C86.826 70.6982 83.7403 72.1603 81.2412 73.867C80.0263 74.6967 79.0289 75.5301 78.3384 76.1538C78.2663 76.2189 78.1978 76.2816 78.1328 76.3415Z" fill="#FF5200"/>
<path d="M201.528 52.0098V34.6074V24.8516C201.528 18.9189 201.396 13.3818 200.474 9.69043L233.828 8.50391V11.1406V20.501V52.9326C233.828 52.9326 238.838 47.3955 245.298 47.3955H246.353C269.951 47.3955 278.652 60.9746 278.652 110.018C278.652 174.354 261.514 182.923 243.32 182.923C235.278 182.923 233.828 180.813 233.828 180.813V201.907C233.828 214.3 235.015 225.11 235.938 234.075L203.242 235.262C202.056 225.638 201.396 213.245 201.396 201.248V180.682C201.396 180.682 199.155 182.923 189.927 182.923C168.438 182.923 156.045 174.354 156.045 110.018C156.045 62.0293 167.778 47.3955 191.772 47.3955C196.914 47.3955 201.528 52.0098 201.528 52.0098ZM187.817 112.786C187.817 150.887 189.795 155.237 194.805 155.237C199.551 155.237 201.396 150.887 201.396 150.887C201.396 131.639 201.528 101.712 201.528 82.4639C201.528 82.4639 199.023 75.2129 196.123 75.2129C190.586 75.2129 187.817 77.8496 187.817 112.786ZM246.748 112.522C246.748 79.959 244.375 75.2129 238.574 75.2129C234.619 75.2129 233.828 82.5957 233.828 82.5957V150.623C233.828 150.623 236.201 155.237 240.552 155.237C244.902 155.237 246.748 152.337 246.748 112.522Z" fill="#A6FF47"/>
<path fill-rule="evenodd" clip-rule="evenodd" d="M203.242 235.262C202.056 225.638 201.396 213.245 201.396 201.248V180.682C201.396 180.682 200.682 181.397 198.396 182.019C196.636 182.498 193.943 182.923 189.927 182.923C168.438 182.923 156.045 174.353 156.045 110.018C156.045 62.0293 167.778 47.3955 191.772 47.3955C194.319 47.3955 196.737 48.5277 198.528 49.6705C200.353 50.8347 201.528 52.0097 201.528 52.0097V24.8515C201.528 20.3542 201.453 16.0841 201.014 12.6731C200.874 11.5845 200.697 10.5835 200.474 9.6904L233.828 8.50388V52.9326C233.828 52.9326 234.955 51.6875 236.828 50.3781C238.905 48.9263 241.901 47.3955 245.298 47.3955H246.353C269.951 47.3955 278.652 60.9746 278.652 110.018C278.652 174.353 261.514 182.923 243.32 182.923C240.336 182.923 238.26 182.632 236.828 182.267C234.402 181.648 233.828 180.813 233.828 180.813V201.907C233.828 212.952 234.771 222.74 235.629 231.084C235.684 231.623 235.739 232.156 235.794 232.683C235.842 233.152 235.89 233.616 235.938 234.075L203.242 235.262ZM236.828 185.347V201.907C236.828 213.506 237.882 223.703 238.78 232.398C238.828 232.859 238.875 233.316 238.922 233.768L239.25 236.957L200.601 238.359L200.265 235.629C199.06 225.855 198.396 213.336 198.396 201.248V185.112C196.379 185.579 193.637 185.923 189.927 185.923C184.399 185.923 179.114 185.381 174.377 183.332C169.547 181.244 165.506 177.69 162.319 172.078C156.103 161.135 153.045 142.171 153.045 110.018C153.045 85.9339 155.959 69.5512 162.355 59.1406C165.604 53.8518 169.747 50.1089 174.782 47.7212C179.777 45.3524 185.483 44.3955 191.772 44.3955C194.334 44.3955 196.676 45.2428 198.528 46.207V24.8515C198.528 18.8319 198.38 13.6841 197.563 10.418L196.665 6.824L236.828 5.39526V46.8269C239.044 45.5551 241.966 44.3955 245.298 44.3955H246.353C252.514 44.3955 257.988 45.2775 262.682 47.593C267.436 49.938 271.169 53.644 273.994 58.8939C279.514 69.1527 281.652 85.5099 281.652 110.018C281.652 142.294 277.383 161.27 270.331 172.22C266.748 177.784 262.45 181.273 257.711 183.33C253.023 185.366 248.084 185.923 243.32 185.923C240.589 185.923 238.473 185.695 236.828 185.347ZM201.528 82.4638C201.528 82.4638 199.023 75.2129 196.123 75.2129C190.586 75.2129 187.817 77.8496 187.817 112.786C187.817 150.887 189.795 155.237 194.805 155.237C199.551 155.237 201.396 150.887 201.396 150.887C201.396 141.263 201.429 128.969 201.462 116.675C201.495 104.382 201.528 92.0879 201.528 82.4638ZM198.397 150.127C198.239 150.372 198.016 150.675 197.727 150.974C197.072 151.649 196.156 152.237 194.805 152.237C194.078 152.237 193.971 152.116 193.855 151.984L193.844 151.971C193.511 151.596 192.915 150.533 192.379 147.735C191.321 142.214 190.817 131.894 190.817 112.786C190.817 95.2473 191.527 86.2649 192.786 81.6949C193.406 79.4449 194.032 78.7676 194.31 78.5547C194.523 78.3927 194.854 78.2427 195.815 78.2168C195.865 78.26 195.93 78.3214 196.011 78.4069C196.399 78.8167 196.84 79.4681 197.28 80.2749C197.705 81.0556 198.063 81.8562 198.318 82.474C198.401 82.6754 198.471 82.8537 198.528 83.001C198.527 92.5382 198.495 104.6 198.462 116.667L198.462 116.672C198.43 128.641 198.398 140.616 198.397 150.127ZM195.694 78.1258C195.694 78.1254 195.7 78.128 195.71 78.1351C195.7 78.1297 195.694 78.1262 195.694 78.1258ZM233.828 150.623C233.828 150.623 236.201 155.237 240.552 155.237C244.902 155.237 246.748 152.337 246.748 112.522C246.748 79.959 244.375 75.2129 238.574 75.2129C234.619 75.2129 233.828 82.5957 233.828 82.5957V150.623ZM236.828 82.7841V149.775C237.039 150.079 237.331 150.455 237.695 150.824C238.542 151.684 239.5 152.237 240.552 152.237C240.882 152.237 241.032 152.212 241.087 152.198C241.091 152.194 241.096 152.189 241.101 152.183C241.309 151.946 241.84 151.05 242.327 148.289C243.278 142.894 243.748 132.49 243.748 112.522C243.748 96.1826 243.14 87.2257 241.927 82.3861C241.323 79.9802 240.672 79.0427 240.269 78.6725C239.984 78.4106 239.597 78.2134 238.578 78.2129C238.554 78.2266 238.486 78.2718 238.382 78.3864C238.113 78.6815 237.808 79.2086 237.527 79.9576C237.258 80.6759 237.074 81.4272 236.957 82.0204C236.9 82.311 236.862 82.5499 236.839 82.7101C236.835 82.7372 236.831 82.7619 236.828 82.7841ZM236.486 149.232L236.489 149.238C236.486 149.232 236.485 149.23 236.486 149.232Z" fill="#FF5200"/>
<path d="M416.781 83.9141C416.781 76.6631 415.595 67.5664 410.321 67.5664C402.411 67.5664 398.192 73.499 387.514 89.3193L374.198 157.874C374.198 157.874 378.944 162.488 386.591 162.488C400.17 162.488 416.781 124.52 416.781 83.9141ZM327.528 144.295C327.528 157.742 329.242 162.488 331.747 162.488C337.548 162.488 346.513 154.446 356.664 140.208C360.355 120.96 366.024 94.1973 369.716 74.9492C369.716 74.9492 363.915 67.6982 356.005 67.6982C339.789 67.6982 327.528 109.358 327.528 144.295ZM405.971 17.2051C402.807 21.292 399.774 28.9385 398.456 34.0801L391.469 61.1064C392.128 60.4473 401.093 47.3955 414.672 47.3955H415.067C431.547 47.3955 438.007 61.2383 438.007 81.6729C438.007 136.648 414.804 182.923 385.404 182.923C375.385 182.923 369.716 180.813 369.716 180.813L366.024 198.216C360.751 223.133 347.304 233.548 330.429 240.799L320.673 223.792C336.229 216.409 343.612 209.158 347.304 195.052L353.368 171.717C353.368 171.717 341.239 182.923 328.451 182.923C314.608 182.923 307.621 170.926 307.621 146.404C307.621 94.0654 324.892 47.5273 358.114 47.5273C366.684 47.5273 373.935 53.0645 373.935 53.0645L378.153 34.0801C379.867 26.3018 383.295 15.0957 390.019 6.52637L405.971 17.2051Z" fill="#A6FF47"/>
<path fill-rule="evenodd" clip-rule="evenodd" d="M374.198 157.874C374.198 157.874 378.944 162.488 386.591 162.488C400.17 162.488 416.781 124.52 416.781 83.9141C416.781 76.6631 415.595 67.5664 410.321 67.5664C402.411 67.5664 398.192 73.499 387.514 89.3194L374.198 157.874ZM390.342 90.4915L377.491 156.653C377.889 156.926 378.378 157.232 378.949 157.54C380.771 158.521 383.381 159.488 386.591 159.488C388.606 159.488 391.421 158.006 394.724 154.01C397.928 150.134 401.138 144.423 403.994 137.31C409.698 123.107 413.781 103.843 413.781 83.9141C413.781 80.3822 413.485 76.6431 412.656 73.8845C412.24 72.501 411.757 71.5972 411.306 71.0864C410.929 70.6587 410.646 70.5664 410.321 70.5664C407.373 70.5664 405.072 71.5641 402.102 74.6059C399.024 77.7596 395.552 82.778 390.342 90.4915ZM366.486 75.8579C364.691 85.1518 362.473 96.0559 360.25 106.981L360.248 106.992C357.962 118.23 355.671 129.49 353.842 138.996C348.983 145.757 344.482 150.954 340.573 154.452C336.789 157.839 334.001 159.23 332.244 159.455C332.078 159.155 331.842 158.608 331.603 157.683C330.96 155.196 330.528 150.958 330.528 144.295C330.528 127.125 333.549 108.31 338.522 93.8725C341.013 86.6406 343.937 80.6778 347.091 76.5845C350.291 72.4305 353.323 70.6983 356.005 70.6983C359.052 70.6983 361.854 72.1093 364.037 73.7315C365.07 74.4989 365.903 75.2696 366.486 75.8579ZM356.664 140.208C346.513 154.446 337.548 162.488 331.747 162.488C329.242 162.488 327.528 157.742 327.528 144.295C327.528 109.358 339.789 67.6983 356.005 67.6983C363.915 67.6983 369.716 74.9492 369.716 74.9492C367.87 84.5733 365.53 96.0759 363.19 107.579C360.85 119.081 358.51 130.584 356.664 140.208ZM410.31 16.5001L408.343 19.0416C405.537 22.6662 402.634 29.8646 401.362 34.8252L401.361 34.831L397.183 50.9892C401.44 47.6479 407.414 44.3955 414.672 44.3955H415.067C424.325 44.3955 431.043 48.3773 435.277 55.3072C439.373 62.0108 441.007 71.2314 441.007 81.6729C441.007 109.541 435.133 135.342 425.399 154.285C415.745 173.072 401.811 185.923 385.404 185.923C380.183 185.923 376.066 185.373 373.221 184.811C372.78 184.724 372.369 184.637 371.99 184.551L368.959 198.837C368.959 198.837 368.959 198.838 368.959 198.838C366.227 211.744 361.33 221.091 354.779 228.17C348.253 235.222 340.252 239.843 331.613 243.555L329.157 244.611L316.457 222.472L319.387 221.082C327.015 217.462 332.372 213.994 336.257 209.883C340.097 205.82 342.656 200.961 344.401 194.294C344.401 194.293 344.401 194.293 344.401 194.292L348.316 179.231C347.973 179.449 347.62 179.668 347.258 179.887C342.446 182.798 335.652 185.923 328.451 185.923C320.454 185.923 314.254 182.348 310.243 175.351C306.377 168.609 304.621 158.85 304.621 146.404C304.621 119.964 308.975 94.7732 317.69 76.0716C326.387 57.4088 339.817 44.5274 358.114 44.5274C363.015 44.5274 367.43 46.1003 370.536 47.5913C371.027 47.8271 371.49 48.063 371.922 48.2932L375.224 33.4346C375.224 33.4334 375.224 33.4323 375.224 33.4312C376.97 25.5119 380.516 13.7772 387.658 4.67452L389.376 2.48584L410.31 16.5001ZM378.153 34.0801L373.935 53.0645C373.935 53.0645 372.937 52.3024 371.244 51.3438C368.373 49.7182 363.505 47.5274 358.114 47.5274C324.892 47.5274 307.621 94.0654 307.621 146.404C307.621 170.926 314.608 182.923 328.451 182.923C336.797 182.923 344.862 178.15 349.458 174.834C351.905 173.069 353.368 171.717 353.368 171.717L347.304 195.052C343.833 208.316 337.098 215.519 323.373 222.47C322.501 222.911 321.602 223.351 320.673 223.792L330.429 240.799C347.304 233.548 360.751 223.133 366.024 198.216L369.716 180.813C369.716 180.813 370.714 181.185 372.612 181.616C375.239 182.212 379.589 182.923 385.404 182.923C414.804 182.923 438.007 136.648 438.007 81.6729C438.007 61.2383 431.547 47.3955 415.067 47.3955H414.672C406.414 47.3955 399.863 52.2223 395.848 56.1535C393.864 58.0959 392.5 59.8197 391.855 60.6345C391.659 60.8824 391.529 61.0462 391.469 61.1065L398.456 34.0801C399.539 29.8553 401.78 23.9394 404.3 19.6966C404.846 18.7758 405.406 17.9339 405.971 17.2051L390.019 6.52638C383.295 15.0957 379.867 26.3018 378.153 34.0801Z" fill="#FF5200"/>
<path d="M521.16 52.0098L524.456 34.6074C527.62 18.1279 529.598 11.0088 532.63 5.33984L533.157 4.28516L563.348 17.4688C563.348 17.4688 562.425 18.5234 561.634 19.5781C560.052 21.5557 558.206 27.3564 556.624 35.6621L553.196 52.9326C553.196 52.9326 559.261 47.3955 565.721 47.3955H566.775C583.255 47.3955 591.297 53.9873 591.297 74.8174C591.297 83.7822 589.847 95.252 586.946 110.018C574.422 174.354 555.701 182.923 537.508 182.923C529.466 182.923 528.411 180.813 528.411 180.813L524.324 201.907C521.028 218.65 512.459 232.098 489.124 243.699L468.426 219.837C483.719 213.509 491.629 203.357 493.738 192.415L495.979 180.682C495.979 180.682 493.343 182.923 484.114 182.923C468.953 182.923 459.065 178.572 459.065 153.26C459.065 142.845 460.647 128.87 464.339 110.018C473.699 62.0293 488.201 47.3955 512.195 47.3955C517.337 47.3955 521.16 52.0098 521.16 52.0098ZM495.584 112.786C491.893 131.902 490.311 142.581 490.311 148.382C490.311 154.183 491.761 155.237 494.266 155.237C499.012 155.237 501.78 150.887 501.78 150.887C505.472 131.639 511.536 101.712 515.228 82.4639C515.228 82.4639 514.041 75.2129 511.141 75.2129C505.604 75.2129 502.439 77.8496 495.584 112.786ZM554.515 112.522C557.415 97.7568 558.733 88.792 558.733 83.2549C558.733 76.6631 556.756 75.2129 553.592 75.2129C549.637 75.2129 547.527 82.5957 547.527 82.5957L534.212 150.623C534.212 150.623 535.662 155.237 540.013 155.237C544.363 155.237 546.736 152.337 554.515 112.522Z" fill="#A6FF47"/>
<path fill-rule="evenodd" clip-rule="evenodd" d="M471.294 218.565C484.715 212.196 491.765 202.651 493.738 192.415L495.979 180.682C495.979 180.682 495.12 181.412 492.666 182.039C490.821 182.51 488.075 182.923 484.114 182.923C468.953 182.923 459.065 178.572 459.065 153.26C459.065 142.845 460.647 128.87 464.339 110.018C473.699 62.0292 488.201 47.3954 512.195 47.3954C514.737 47.3954 516.956 48.523 518.551 49.6633C520.183 50.8298 521.16 52.0097 521.16 52.0097L524.456 34.6074C527.62 18.1279 529.598 11.0087 532.63 5.33978L533.157 4.28509L563.348 17.4687C563.348 17.4687 562.425 18.5234 561.634 19.5781C561.557 19.674 561.48 19.7788 561.402 19.8925C559.873 22.124 558.129 27.7591 556.624 35.662L553.196 52.9325C553.196 52.9325 554.599 51.6522 556.773 50.3229C559.12 48.8877 562.367 47.3954 565.721 47.3954H566.775C583.255 47.3954 591.297 53.9872 591.297 74.8173C591.297 83.7822 589.847 95.2519 586.946 110.018C574.422 174.353 555.701 182.923 537.508 182.923C534.556 182.923 532.545 182.639 531.183 182.279C528.834 181.658 528.411 180.813 528.411 180.813L524.324 201.907C521.028 218.65 512.459 232.098 489.124 243.699L468.426 219.837C469.412 219.429 470.368 219.004 471.294 218.565ZM530.611 185.229L527.268 202.487C525.55 211.215 522.422 219.234 516.59 226.594C510.775 233.934 502.406 240.446 490.46 246.385L488.38 247.42L463.431 218.657L467.279 217.065C481.811 211.052 488.906 201.631 490.792 191.85C490.792 191.849 490.792 191.848 490.793 191.847L492.053 185.25C490.057 185.643 487.461 185.923 484.114 185.923C476.397 185.923 469.074 184.856 463.812 179.733C458.558 174.618 456.065 166.165 456.065 153.26C456.065 142.571 457.686 128.385 461.394 109.443C466.099 85.3259 472.176 69.0713 480.445 58.8266C488.905 48.3454 499.456 44.3954 512.195 44.3954C514.973 44.3954 517.362 45.3876 519.156 46.4715L521.51 34.0417C524.661 17.6312 526.701 10.0794 529.965 3.96188L531.748 0.395996L568.304 16.3596L565.606 19.4437L565.605 19.4447L565.599 19.4511L565.574 19.4809C565.563 19.4926 565.551 19.5071 565.536 19.524C565.517 19.546 565.495 19.5723 565.469 19.6023C565.377 19.709 565.247 19.863 565.092 20.0484C564.779 20.4237 564.387 20.9077 564.034 21.3781L564.006 21.4156L563.976 21.4521C563.568 21.9629 562.844 23.4232 561.992 26.1438C561.18 28.7367 560.348 32.1444 559.571 36.2234L559.569 36.2347L557.535 46.4846C559.829 45.3652 562.68 44.3954 565.721 44.3954H566.775C575.318 44.3954 582.469 46.0876 587.383 51.2205C592.257 56.312 594.297 64.135 594.297 74.8173C594.297 84.0688 592.804 95.7593 589.89 110.596C583.6 142.904 575.671 161.743 566.654 172.521C557.416 183.564 547.233 185.923 537.508 185.923C534.511 185.923 532.283 185.648 530.611 185.229ZM515.228 82.4638C515.228 82.4638 514.041 75.2128 511.141 75.2128C505.604 75.2128 502.439 77.8495 495.584 112.786C491.893 131.902 490.311 142.581 490.311 148.382C490.311 154.183 491.761 155.237 494.266 155.237C499.012 155.237 501.78 150.887 501.78 150.887C503.626 141.263 506.065 128.969 508.504 116.675C510.943 104.382 513.382 92.0878 515.228 82.4638ZM498.962 149.654C500.794 140.123 503.178 128.104 505.56 116.098L505.561 116.091C507.954 104.033 510.343 91.9877 512.173 82.4609C512.146 82.3291 512.113 82.1751 512.073 82.0041C511.933 81.396 511.726 80.6165 511.452 79.8635C511.181 79.1177 510.902 78.5589 510.66 78.2227C509.835 78.2598 509.397 78.4021 509.009 78.6622C508.478 79.0183 507.641 79.877 506.576 82.1645C504.415 86.8069 501.967 95.84 498.529 113.36C494.824 132.544 493.311 142.924 493.311 148.382C493.311 149.724 493.396 150.673 493.523 151.336C493.616 151.822 493.718 152.084 493.778 152.207C493.867 152.222 494.021 152.237 494.266 152.237C495.683 152.237 496.897 151.59 497.865 150.772C498.338 150.371 498.706 149.967 498.952 149.667C498.955 149.662 498.959 149.658 498.962 149.654ZM510.485 78.0143C510.485 78.0136 510.491 78.0185 510.504 78.0307C510.491 78.021 510.485 78.0149 510.485 78.0143ZM551.57 111.947L551.571 111.944C554.479 97.1399 555.733 88.4549 555.733 83.2548C555.733 80.1002 555.227 78.9329 554.949 78.5619C554.947 78.5585 554.944 78.555 554.941 78.5513C554.86 78.4406 554.691 78.2128 553.592 78.2128C553.579 78.2128 553.541 78.2131 553.456 78.2526C553.359 78.2973 553.206 78.3913 553.004 78.5763C552.582 78.9646 552.131 79.5803 551.701 80.3572C551.283 81.112 550.954 81.8908 550.728 82.4954C550.616 82.7933 550.533 83.0382 550.48 83.203C550.465 83.2483 550.453 83.2872 550.443 83.3194L537.334 150.292C537.462 150.534 537.63 150.81 537.84 151.077C538.39 151.777 539.054 152.237 540.013 152.237C540.665 152.237 540.77 152.159 540.971 151.971C541.397 151.573 542.148 150.518 543.165 147.769C545.175 142.336 547.671 131.905 551.57 111.947ZM534.212 150.623L547.527 82.5956C547.527 82.5956 549.637 75.2128 553.592 75.2128C556.756 75.2128 558.733 76.663 558.733 83.2548C558.733 88.7919 557.415 97.7568 554.515 112.522C546.736 152.337 544.363 155.237 540.013 155.237C535.662 155.237 534.212 150.623 534.212 150.623Z" fill="#FF5200"/>
</svg>
