<svg width="1280" height="81" viewBox="0 0 1280 81" fill="none" xmlns="http://www.w3.org/2000/svg">
<path d="M-46.9995 1.11377H180.833V76.734H-46.9995V1.11377Z" fill="white"/>
<path fill-rule="evenodd" clip-rule="evenodd" d="M180.074 1.86997H-46.2401V75.9778H180.074V1.86997ZM-46.9995 1.11377V76.734H180.833V1.11377H-46.9995Z" fill="#FF5200"/>
<path d="M-9.02734 40.4363H28.9448V78.2464H-9.02734V40.4363Z" fill="black"/>
<path fill-rule="evenodd" clip-rule="evenodd" d="M28.1853 41.1925H-8.2679V77.4902H28.1853V41.1925ZM-9.02734 40.4363V78.2464H28.9448V40.4363H-9.02734Z" fill="#FF5200"/>
<path d="M28.9446 3.38245H66.9167V41.1926H28.9446V3.38245Z" fill="black"/>
<path fill-rule="evenodd" clip-rule="evenodd" d="M66.1572 4.13865H29.704V40.4364H66.1572V4.13865ZM28.9446 3.38245V41.1926H66.9167V3.38245H28.9446Z" fill="#FF5200"/>
<path d="M66.917 40.4363H104.889V78.2464H66.917V40.4363Z" fill="black"/>
<path fill-rule="evenodd" clip-rule="evenodd" d="M104.13 41.1925H67.6764V77.4902H104.13V41.1925ZM66.917 40.4363V78.2464H104.889V40.4363H66.917Z" fill="#FF5200"/>
<path d="M104.889 3.38245H142.861V41.1926H104.889V3.38245Z" fill="black"/>
<path fill-rule="evenodd" clip-rule="evenodd" d="M142.102 4.13865H105.649V40.4364H142.102V4.13865ZM104.889 3.38245V41.1926H142.861V3.38245H104.889Z" fill="#FF5200"/>
<path d="M142.861 40.4363H180.833V78.2464H142.861V40.4363Z" fill="black"/>
<path fill-rule="evenodd" clip-rule="evenodd" d="M180.073 41.1925H143.62V77.4902H180.073V41.1925ZM142.861 40.4363V78.2464H180.833V40.4363H142.861Z" fill="#FF5200"/>
<path fill-rule="evenodd" clip-rule="evenodd" d="M180.833 3.78101H-47V0L180.833 0V3.78101Z" fill="#FF5200"/>
<path fill-rule="evenodd" clip-rule="evenodd" d="M180.833 80.1575H-47V76.3765H180.833V80.1575Z" fill="#FF5200"/>
<path d="M180.833 1.11377H408.666V76.734H180.833V1.11377Z" fill="white"/>
<path fill-rule="evenodd" clip-rule="evenodd" d="M407.906 1.86997H181.592V75.9778H407.906V1.86997ZM180.833 1.11377V76.734H408.666V1.11377H180.833Z" fill="#FF5200"/>
<path d="M180.833 2.62622H218.805V40.4363H180.833V2.62622Z" fill="black"/>
<path fill-rule="evenodd" clip-rule="evenodd" d="M218.046 3.38242H181.592V39.6801H218.046V3.38242ZM180.833 2.62622V40.4363H218.805V2.62622H180.833Z" fill="#FF5200"/>
<path d="M218.805 40.4363H256.777V78.2464H218.805V40.4363Z" fill="black"/>
<path fill-rule="evenodd" clip-rule="evenodd" d="M256.018 41.1925H219.565V77.4902H256.018V41.1925ZM218.805 40.4363V78.2464H256.777V40.4363H218.805Z" fill="#FF5200"/>
<path d="M256.777 3.38245H294.749V41.1926H256.777V3.38245Z" fill="black"/>
<path fill-rule="evenodd" clip-rule="evenodd" d="M293.99 4.13865H257.537V40.4364H293.99V4.13865ZM256.777 3.38245V41.1926H294.749V3.38245H256.777Z" fill="#FF5200"/>
<path d="M294.749 40.4363H332.721V78.2464H294.749V40.4363Z" fill="black"/>
<path fill-rule="evenodd" clip-rule="evenodd" d="M331.962 41.1925H295.508V77.4902H331.962V41.1925ZM294.749 40.4363V78.2464H332.721V40.4363H294.749Z" fill="#FF5200"/>
<path d="M332.722 3.38245H370.694V41.1926H332.722V3.38245Z" fill="black"/>
<path fill-rule="evenodd" clip-rule="evenodd" d="M369.934 4.13865H333.481V40.4364H369.934V4.13865ZM332.722 3.38245V41.1926H370.694V3.38245H332.722Z" fill="#FF5200"/>
<path d="M370.693 40.4363H408.665V78.2464H370.693V40.4363Z" fill="black"/>
<path fill-rule="evenodd" clip-rule="evenodd" d="M407.906 41.1925H371.453V77.4902H407.906V41.1925ZM370.693 40.4363V78.2464H408.665V40.4363H370.693Z" fill="#FF5200"/>
<path fill-rule="evenodd" clip-rule="evenodd" d="M408.665 3.78101H180.833V0L408.665 0V3.78101Z" fill="#FF5200"/>
<path fill-rule="evenodd" clip-rule="evenodd" d="M408.665 80.1575H180.833V76.3765H408.665V80.1575Z" fill="#FF5200"/>
<path d="M864.331 1.11377H1092.16V76.734H864.331V1.11377Z" fill="white"/>
<path fill-rule="evenodd" clip-rule="evenodd" d="M1091.4 1.86997H865.09V75.9778H1091.4V1.86997ZM864.331 1.11377V76.734H1092.16V1.11377H864.331Z" fill="#FF5200"/>
<path d="M864.331 2.62622H902.303V40.4363H864.331V2.62622Z" fill="black"/>
<path fill-rule="evenodd" clip-rule="evenodd" d="M901.544 3.38242H865.09V39.6801H901.544V3.38242ZM864.331 2.62622V40.4363H902.303V2.62622H864.331Z" fill="#FF5200"/>
<path d="M902.303 40.4363H940.275V78.2464H902.303V40.4363Z" fill="black"/>
<path fill-rule="evenodd" clip-rule="evenodd" d="M939.515 41.1925H903.062V77.4902H939.515V41.1925ZM902.303 40.4363V78.2464H940.275V40.4363H902.303Z" fill="#FF5200"/>
<path d="M940.275 3.38245H978.247V41.1926H940.275V3.38245Z" fill="black"/>
<path fill-rule="evenodd" clip-rule="evenodd" d="M977.488 4.13865H941.035V40.4364H977.488V4.13865ZM940.275 3.38245V41.1926H978.247V3.38245H940.275Z" fill="#FF5200"/>
<path d="M978.247 40.4363H1016.22V78.2464H978.247V40.4363Z" fill="black"/>
<path fill-rule="evenodd" clip-rule="evenodd" d="M1015.46 41.1925H979.007V77.4902H1015.46V41.1925ZM978.247 40.4363V78.2464H1016.22V40.4363H978.247Z" fill="#FF5200"/>
<path d="M1016.22 3.38245H1054.19V41.1926H1016.22V3.38245Z" fill="black"/>
<path fill-rule="evenodd" clip-rule="evenodd" d="M1053.43 4.13865H1016.98V40.4364H1053.43V4.13865ZM1016.22 3.38245V41.1926H1054.19V3.38245H1016.22Z" fill="#FF5200"/>
<path d="M1054.19 40.4363H1092.16V78.2464H1054.19V40.4363Z" fill="black"/>
<path fill-rule="evenodd" clip-rule="evenodd" d="M1091.4 41.1925H1054.95V77.4902H1091.4V41.1925ZM1054.19 40.4363V78.2464H1092.16V40.4363H1054.19Z" fill="#FF5200"/>
<path fill-rule="evenodd" clip-rule="evenodd" d="M1092.16 3.78101H864.331V0L1092.16 0V3.78101Z" fill="#FF5200"/>
<path fill-rule="evenodd" clip-rule="evenodd" d="M1092.16 80.1575H864.331V76.3765H1092.16V80.1575Z" fill="#FF5200"/>
<path d="M1092.16 1.11377H1320V76.734H1092.16V1.11377Z" fill="white"/>
<path fill-rule="evenodd" clip-rule="evenodd" d="M1319.24 1.86997H1092.92V75.9778H1319.24V1.86997ZM1092.16 1.11377V76.734H1320V1.11377H1092.16Z" fill="#FF5200"/>
<path d="M1092.16 2.62622H1130.14V40.4363H1092.16V2.62622Z" fill="black"/>
<path fill-rule="evenodd" clip-rule="evenodd" d="M1129.38 3.38242H1092.92V39.6801H1129.38V3.38242ZM1092.16 2.62622V40.4363H1130.14V2.62622H1092.16Z" fill="#FF5200"/>
<path d="M1130.14 40.4363H1168.11V78.2464H1130.14V40.4363Z" fill="black"/>
<path fill-rule="evenodd" clip-rule="evenodd" d="M1167.35 41.1925H1130.9V77.4902H1167.35V41.1925ZM1130.14 40.4363V78.2464H1168.11V40.4363H1130.14Z" fill="#FF5200"/>
<path d="M1168.11 3.38245H1206.08V41.1926H1168.11V3.38245Z" fill="black"/>
<path fill-rule="evenodd" clip-rule="evenodd" d="M1205.32 4.13865H1168.87V40.4364H1205.32V4.13865ZM1168.11 3.38245V41.1926H1206.08V3.38245H1168.11Z" fill="#FF5200"/>
<path d="M1206.08 40.4363H1244.05V78.2464H1206.08V40.4363Z" fill="black"/>
<path fill-rule="evenodd" clip-rule="evenodd" d="M1243.29 41.1925H1206.84V77.4902H1243.29V41.1925ZM1206.08 40.4363V78.2464H1244.05V40.4363H1206.08Z" fill="#FF5200"/>
<path d="M1244.05 3.38245H1282.02V41.1926H1244.05V3.38245Z" fill="black"/>
<path fill-rule="evenodd" clip-rule="evenodd" d="M1281.26 4.13865H1244.81V40.4364H1281.26V4.13865ZM1244.05 3.38245V41.1926H1282.02V3.38245H1244.05Z" fill="#FF5200"/>
<path fill-rule="evenodd" clip-rule="evenodd" d="M1320 3.78101H1092.16V0L1320 0V3.78101Z" fill="#FF5200"/>
<path fill-rule="evenodd" clip-rule="evenodd" d="M1320 80.1575H1092.16V76.3765H1320V80.1575Z" fill="#FF5200"/>
<path d="M408.666 1.11377H636.498V76.734H408.666V1.11377Z" fill="white"/>
<path fill-rule="evenodd" clip-rule="evenodd" d="M635.739 1.86997H409.425V75.9778H635.739V1.86997ZM408.666 1.11377V76.734H636.498V1.11377H408.666Z" fill="#FF5200"/>
<path d="M408.666 2.62622H446.638V40.4363H408.666V2.62622Z" fill="black"/>
<path fill-rule="evenodd" clip-rule="evenodd" d="M445.878 3.38242H409.425V39.6801H445.878V3.38242ZM408.666 2.62622V40.4363H446.638V2.62622H408.666Z" fill="#FF5200"/>
<path d="M446.638 40.4363H484.61V78.2464H446.638V40.4363Z" fill="black"/>
<path fill-rule="evenodd" clip-rule="evenodd" d="M483.85 41.1925H447.397V77.4902H483.85V41.1925ZM446.638 40.4363V78.2464H484.61V40.4363H446.638Z" fill="#FF5200"/>
<path d="M484.61 3.38245H522.582V41.1926H484.61V3.38245Z" fill="black"/>
<path fill-rule="evenodd" clip-rule="evenodd" d="M521.823 4.13865H485.369V40.4364H521.823V4.13865ZM484.61 3.38245V41.1926H522.582V3.38245H484.61Z" fill="#FF5200"/>
<path d="M522.582 40.4363H560.554V78.2464H522.582V40.4363Z" fill="black"/>
<path fill-rule="evenodd" clip-rule="evenodd" d="M559.795 41.1925H523.341V77.4902H559.795V41.1925ZM522.582 40.4363V78.2464H560.554V40.4363H522.582Z" fill="#FF5200"/>
<path d="M560.554 3.38245H598.526V41.1926H560.554V3.38245Z" fill="black"/>
<path fill-rule="evenodd" clip-rule="evenodd" d="M597.766 4.13865H561.313V40.4364H597.766V4.13865ZM560.554 3.38245V41.1926H598.526V3.38245H560.554Z" fill="#FF5200"/>
<path d="M598.526 40.4363H636.498V78.2464H598.526V40.4363Z" fill="black"/>
<path fill-rule="evenodd" clip-rule="evenodd" d="M635.739 41.1925H599.285V77.4902H635.739V41.1925ZM598.526 40.4363V78.2464H636.498V40.4363H598.526Z" fill="#FF5200"/>
<path fill-rule="evenodd" clip-rule="evenodd" d="M636.498 3.78101H408.665V0L636.498 0V3.78101Z" fill="#FF5200"/>
<path fill-rule="evenodd" clip-rule="evenodd" d="M636.498 80.1575H408.665V76.3765H636.498V80.1575Z" fill="#FF5200"/>
<path d="M636.498 1.11377H864.331V76.734H636.498V1.11377Z" fill="white"/>
<path fill-rule="evenodd" clip-rule="evenodd" d="M863.571 1.86997H637.257V75.9778H863.571V1.86997ZM636.498 1.11377V76.734H864.331V1.11377H636.498Z" fill="#FF5200"/>
<path d="M636.498 2.62622H674.47V40.4363H636.498V2.62622Z" fill="black"/>
<path fill-rule="evenodd" clip-rule="evenodd" d="M673.711 3.38242H637.257V39.6801H673.711V3.38242ZM636.498 2.62622V40.4363H674.47V2.62622H636.498Z" fill="#FF5200"/>
<path d="M674.47 40.4363H712.442V78.2464H674.47V40.4363Z" fill="black"/>
<path fill-rule="evenodd" clip-rule="evenodd" d="M711.683 41.1925H675.23V77.4902H711.683V41.1925ZM674.47 40.4363V78.2464H712.442V40.4363H674.47Z" fill="#FF5200"/>
<path d="M712.442 3.38245H750.414V41.1926H712.442V3.38245Z" fill="black"/>
<path fill-rule="evenodd" clip-rule="evenodd" d="M749.655 4.13865H713.202V40.4364H749.655V4.13865ZM712.442 3.38245V41.1926H750.414V3.38245H712.442Z" fill="#FF5200"/>
<path d="M750.415 40.4363H788.387V78.2464H750.415V40.4363Z" fill="black"/>
<path fill-rule="evenodd" clip-rule="evenodd" d="M787.627 41.1925H751.174V77.4902H787.627V41.1925ZM750.415 40.4363V78.2464H788.387V40.4363H750.415Z" fill="#FF5200"/>
<path d="M788.386 3.38245H826.358V41.1926H788.386V3.38245Z" fill="black"/>
<path fill-rule="evenodd" clip-rule="evenodd" d="M825.599 4.13865H789.146V40.4364H825.599V4.13865ZM788.386 3.38245V41.1926H826.358V3.38245H788.386Z" fill="#FF5200"/>
<path d="M826.359 40.4363H864.331V78.2464H826.359V40.4363Z" fill="black"/>
<path fill-rule="evenodd" clip-rule="evenodd" d="M863.572 41.1925H827.118V77.4902H863.572V41.1925ZM826.359 40.4363V78.2464H864.331V40.4363H826.359Z" fill="#FF5200"/>
<path fill-rule="evenodd" clip-rule="evenodd" d="M864.33 3.78101H636.498V0L864.33 0V3.78101Z" fill="#FF5200"/>
<path fill-rule="evenodd" clip-rule="evenodd" d="M864.33 80.1575H636.498V76.3765H864.33V80.1575Z" fill="#FF5200"/>
<path d="M408.666 1.11377H636.498V76.734H408.666V1.11377Z" fill="white"/>
<path fill-rule="evenodd" clip-rule="evenodd" d="M635.739 1.86997H409.425V75.9778H635.739V1.86997ZM408.666 1.11377V76.734H636.498V1.11377H408.666Z" fill="#FF5200"/>
<path d="M408.666 2.62622H446.638V40.4363H408.666V2.62622Z" fill="black"/>
<path fill-rule="evenodd" clip-rule="evenodd" d="M445.878 3.38242H409.425V39.6801H445.878V3.38242ZM408.666 2.62622V40.4363H446.638V2.62622H408.666Z" fill="#FF5200"/>
<path d="M446.638 40.4363H484.61V78.2464H446.638V40.4363Z" fill="black"/>
<path fill-rule="evenodd" clip-rule="evenodd" d="M483.85 41.1925H447.397V77.4902H483.85V41.1925ZM446.638 40.4363V78.2464H484.61V40.4363H446.638Z" fill="#FF5200"/>
<path d="M484.61 3.38245H522.582V41.1926H484.61V3.38245Z" fill="black"/>
<path fill-rule="evenodd" clip-rule="evenodd" d="M521.823 4.13865H485.369V40.4364H521.823V4.13865ZM484.61 3.38245V41.1926H522.582V3.38245H484.61Z" fill="#FF5200"/>
<path d="M522.582 40.4363H560.554V78.2464H522.582V40.4363Z" fill="black"/>
<path fill-rule="evenodd" clip-rule="evenodd" d="M559.795 41.1925H523.341V77.4902H559.795V41.1925ZM522.582 40.4363V78.2464H560.554V40.4363H522.582Z" fill="#FF5200"/>
<path d="M560.554 3.38245H598.526V41.1926H560.554V3.38245Z" fill="black"/>
<path fill-rule="evenodd" clip-rule="evenodd" d="M597.766 4.13865H561.313V40.4364H597.766V4.13865ZM560.554 3.38245V41.1926H598.526V3.38245H560.554Z" fill="#FF5200"/>
<path d="M598.526 40.4363H636.498V78.2464H598.526V40.4363Z" fill="black"/>
<path fill-rule="evenodd" clip-rule="evenodd" d="M635.739 41.1925H599.285V77.4902H635.739V41.1925ZM598.526 40.4363V78.2464H636.498V40.4363H598.526Z" fill="#FF5200"/>
<path fill-rule="evenodd" clip-rule="evenodd" d="M636.498 3.78101H408.665V0L636.498 0V3.78101Z" fill="#FF5200"/>
<path fill-rule="evenodd" clip-rule="evenodd" d="M636.498 80.1575H408.665V76.3765H636.498V80.1575Z" fill="#FF5200"/>
<path d="M636.498 1.11377H864.331V76.734H636.498V1.11377Z" fill="white"/>
<path fill-rule="evenodd" clip-rule="evenodd" d="M863.571 1.86997H637.257V75.9778H863.571V1.86997ZM636.498 1.11377V76.734H864.331V1.11377H636.498Z" fill="#FF5200"/>
<path d="M636.498 2.62622H674.47V40.4363H636.498V2.62622Z" fill="black"/>
<path fill-rule="evenodd" clip-rule="evenodd" d="M673.711 3.38242H637.257V39.6801H673.711V3.38242ZM636.498 2.62622V40.4363H674.47V2.62622H636.498Z" fill="#FF5200"/>
<path d="M674.47 40.4363H712.442V78.2464H674.47V40.4363Z" fill="black"/>
<path fill-rule="evenodd" clip-rule="evenodd" d="M711.683 41.1925H675.23V77.4902H711.683V41.1925ZM674.47 40.4363V78.2464H712.442V40.4363H674.47Z" fill="#FF5200"/>
<path d="M712.442 3.38245H750.414V41.1926H712.442V3.38245Z" fill="black"/>
<path fill-rule="evenodd" clip-rule="evenodd" d="M749.655 4.13865H713.202V40.4364H749.655V4.13865ZM712.442 3.38245V41.1926H750.414V3.38245H712.442Z" fill="#FF5200"/>
<path d="M750.415 40.4363H788.387V78.2464H750.415V40.4363Z" fill="black"/>
<path fill-rule="evenodd" clip-rule="evenodd" d="M787.627 41.1925H751.174V77.4902H787.627V41.1925ZM750.415 40.4363V78.2464H788.387V40.4363H750.415Z" fill="#FF5200"/>
<path d="M788.386 3.38245H826.358V41.1926H788.386V3.38245Z" fill="black"/>
<path fill-rule="evenodd" clip-rule="evenodd" d="M825.599 4.13865H789.146V40.4364H825.599V4.13865ZM788.386 3.38245V41.1926H826.358V3.38245H788.386Z" fill="#FF5200"/>
<path d="M826.359 40.4363H864.331V78.2464H826.359V40.4363Z" fill="black"/>
<path fill-rule="evenodd" clip-rule="evenodd" d="M863.572 41.1925H827.118V77.4902H863.572V41.1925ZM826.359 40.4363V78.2464H864.331V40.4363H826.359Z" fill="#FF5200"/>
<path fill-rule="evenodd" clip-rule="evenodd" d="M864.33 3.78101H636.498V0L864.33 0V3.78101Z" fill="#FF5200"/>
<path fill-rule="evenodd" clip-rule="evenodd" d="M864.33 80.1575H636.498V76.3765H864.33V80.1575Z" fill="#FF5200"/>
</svg>
