<svg width="663" height="93" viewBox="0 0 663 93" fill="none" xmlns="http://www.w3.org/2000/svg">
<path d="M616.151 92.8706L611.711 77.8718L597.341 77.8718L608.966 68.6021L604.526 53.6033L616.151 62.8731L627.776 53.6033L623.336 68.6021L634.961 77.8718L620.591 77.8718L616.151 92.8706Z" fill="#FF5200"/>
<path fill-rule="evenodd" clip-rule="evenodd" d="M611.711 77.8718L616.151 92.8706L620.591 77.8718L634.961 77.8718L623.336 68.6021L627.776 53.6033L616.151 62.8731L604.526 53.6033L608.966 68.6021L597.341 77.8718L611.711 77.8718ZM601.964 76.2233H612.802L616.151 87.5357L619.5 76.2233H630.338L621.57 69.2318L624.919 57.9194L616.151 64.9109L607.383 57.9194L610.732 69.2318L601.964 76.2233Z" fill="#0D2B52"/>
<path d="M537.039 92.8706L532.598 77.8718L518.229 77.8718L529.854 68.6021L525.414 53.6033L537.039 62.8731L548.664 53.6033L544.224 68.6021L555.849 77.8718L541.479 77.8718L537.039 92.8706Z" fill="#FF5200"/>
<path fill-rule="evenodd" clip-rule="evenodd" d="M532.598 77.8718L537.039 92.8706L541.479 77.8718L555.849 77.8718L544.224 68.6021L548.664 53.6033L537.039 62.8731L525.414 53.6033L529.854 68.6021L518.229 77.8718L532.598 77.8718ZM522.852 76.2233H533.69L537.039 87.5357L540.388 76.2233H551.226L542.458 69.2318L545.807 57.9194L537.039 64.9109L528.271 57.9194L531.62 69.2318L522.852 76.2233Z" fill="#0D2B52"/>
<path d="M576.596 49.4578L572.156 64.4565L557.786 64.4565L569.411 73.7263L564.971 88.725L576.596 79.4553L588.221 88.725L583.781 73.7263L595.406 64.4565L581.036 64.4565L576.596 49.4578Z" fill="#FF5200"/>
<path fill-rule="evenodd" clip-rule="evenodd" d="M572.156 64.4565L576.596 49.4578L581.036 64.4565L595.406 64.4565L583.781 73.7263L588.221 88.725L576.596 79.4553L564.971 88.725L569.411 73.7263L557.786 64.4565L572.156 64.4565ZM562.409 66.1051H573.247L576.596 54.7927L579.945 66.1051H590.783L582.015 73.0966L585.364 84.409L576.596 77.4175L567.828 84.409L571.177 73.0966L562.409 66.1051Z" fill="#0D2B52"/>
<path d="M497.483 49.4578L493.043 64.4565L478.673 64.4565L490.298 73.7263L485.858 88.725L497.483 79.4553L509.108 88.725L504.668 73.7263L516.293 64.4565L501.924 64.4565L497.483 49.4578Z" fill="#FF5200"/>
<path fill-rule="evenodd" clip-rule="evenodd" d="M493.043 64.4565L497.483 49.4578L501.924 64.4565L516.293 64.4565L504.668 73.7263L509.108 88.725L497.483 79.4553L485.858 88.725L490.298 73.7263L478.673 64.4565L493.043 64.4565ZM483.296 66.1051H494.134L497.483 54.7927L500.832 66.1051H511.67L502.902 73.0966L506.251 84.409L497.483 77.4175L488.715 84.409L492.064 73.0966L483.296 66.1051Z" fill="#0D2B52"/>
<path d="M457.928 92.8706L453.488 77.8718L439.118 77.8718L450.743 68.6021L446.303 53.6033L457.928 62.8731L469.553 53.6033L465.113 68.6021L476.738 77.8718L462.368 77.8718L457.928 92.8706Z" fill="#FF5200"/>
<path fill-rule="evenodd" clip-rule="evenodd" d="M453.488 77.8718L457.928 92.8706L462.368 77.8718L476.738 77.8718L465.113 68.6021L469.553 53.6033L457.928 62.8731L446.303 53.6033L450.743 68.6021L439.118 77.8718L453.488 77.8718ZM443.741 76.2233H454.579L457.928 87.5357L461.277 76.2233H472.115L463.347 69.2318L466.696 57.9194L457.928 64.9109L449.16 57.9194L452.509 69.2318L443.741 76.2233Z" fill="#0D2B52"/>
<path d="M378.816 92.8706L374.376 77.8718L360.006 77.8718L371.631 68.6021L367.191 53.6033L378.816 62.8731L390.441 53.6033L386.001 68.6021L397.626 77.8718L383.257 77.8718L378.816 92.8706Z" fill="#FF5200"/>
<path fill-rule="evenodd" clip-rule="evenodd" d="M374.376 77.8718L378.816 92.8706L383.257 77.8718L397.626 77.8718L386.001 68.6021L390.441 53.6033L378.816 62.8731L367.191 53.6033L371.631 68.6021L360.006 77.8718L374.376 77.8718ZM364.629 76.2233H375.467L378.816 87.5357L382.165 76.2233H393.003L384.235 69.2318L387.584 57.9194L378.816 64.9109L370.048 57.9194L373.397 69.2318L364.629 76.2233Z" fill="#0D2B52"/>
<path d="M418.373 49.4578L413.932 64.4565L399.563 64.4565L411.188 73.7263L406.748 88.725L418.373 79.4553L429.998 88.725L425.557 73.7263L437.183 64.4565L422.813 64.4565L418.373 49.4578Z" fill="#FF5200"/>
<path fill-rule="evenodd" clip-rule="evenodd" d="M413.932 64.4565L418.373 49.4578L422.813 64.4565L437.183 64.4565L425.557 73.7263L429.998 88.725L418.373 79.4553L406.748 88.725L411.188 73.7263L399.563 64.4565L413.932 64.4565ZM404.186 66.1051H415.024L418.373 54.7927L421.722 66.1051H432.56L423.792 73.0966L427.141 84.409L418.373 77.4175L409.605 84.409L412.954 73.0966L404.186 66.1051Z" fill="#0D2B52"/>
<path d="M339.26 49.4578L334.82 64.4565L320.451 64.4565L332.076 73.7263L327.635 88.725L339.26 79.4553L350.886 88.725L346.445 73.7263L358.07 64.4565L343.701 64.4565L339.26 49.4578Z" fill="#FF5200"/>
<path fill-rule="evenodd" clip-rule="evenodd" d="M334.82 64.4565L339.26 49.4578L343.701 64.4565L358.07 64.4565L346.445 73.7263L350.886 88.725L339.26 79.4553L327.635 88.725L332.076 73.7263L320.451 64.4565L334.82 64.4565ZM325.074 66.1051H335.911L339.26 54.7927L342.61 66.1051H353.447L344.679 73.0966L348.028 84.409L339.26 77.4175L330.493 84.409L333.842 73.0966L325.074 66.1051Z" fill="#0D2B52"/>
<path d="M295.699 92.8706L291.259 77.8718L276.89 77.8718L288.515 68.6021L284.074 53.6033L295.699 62.8731L307.325 53.6033L302.884 68.6021L314.509 77.8718L300.14 77.8718L295.699 92.8706Z" fill="#FF5200"/>
<path fill-rule="evenodd" clip-rule="evenodd" d="M291.259 77.8718L295.699 92.8706L300.14 77.8718L314.509 77.8718L302.884 68.6021L307.325 53.6033L295.699 62.8731L284.074 53.6033L288.515 68.6021L276.89 77.8718L291.259 77.8718ZM281.513 76.2233H292.35L295.699 87.5357L299.048 76.2233H309.886L301.118 69.2318L304.467 57.9194L295.699 64.9109L286.931 57.9194L290.281 69.2318L281.513 76.2233Z" fill="#0D2B52"/>
<path d="M216.588 92.8706L212.148 77.8718L197.778 77.8718L209.403 68.6021L204.963 53.6033L216.588 62.8731L228.213 53.6033L223.773 68.6021L235.398 77.8718L221.029 77.8718L216.588 92.8706Z" fill="#FF5200"/>
<path fill-rule="evenodd" clip-rule="evenodd" d="M212.148 77.8718L216.588 92.8706L221.029 77.8718L235.398 77.8718L223.773 68.6021L228.213 53.6033L216.588 62.8731L204.963 53.6033L209.403 68.6021L197.778 77.8718L212.148 77.8718ZM202.401 76.2233H213.239L216.588 87.5357L219.937 76.2233H230.775L222.007 69.2318L225.356 57.9194L216.588 64.9109L207.82 57.9194L211.169 69.2318L202.401 76.2233Z" fill="#0D2B52"/>
<path d="M256.144 49.4578L251.703 64.4565L237.334 64.4565L248.959 73.7263L244.519 88.725L256.144 79.4553L267.769 88.725L263.328 73.7263L274.954 64.4565L260.584 64.4565L256.144 49.4578Z" fill="#FF5200"/>
<path fill-rule="evenodd" clip-rule="evenodd" d="M251.703 64.4565L256.144 49.4578L260.584 64.4565L274.954 64.4565L263.328 73.7263L267.769 88.725L256.144 79.4553L244.519 88.725L248.959 73.7263L237.334 64.4565L251.703 64.4565ZM241.957 66.1051H252.795L256.144 54.7927L259.493 66.1051H270.331L261.563 73.0966L264.912 84.409L256.144 77.4175L247.376 84.409L250.725 73.0966L241.957 66.1051Z" fill="#0D2B52"/>
<path d="M177.032 49.4578L172.592 64.4565L158.223 64.4565L169.848 73.7263L165.407 88.725L177.032 79.4553L188.658 88.725L184.217 73.7263L195.842 64.4565L181.473 64.4565L177.032 49.4578Z" fill="#FF5200"/>
<path fill-rule="evenodd" clip-rule="evenodd" d="M172.592 64.4565L177.032 49.4578L181.473 64.4565L195.842 64.4565L184.217 73.7263L188.658 88.725L177.032 79.4553L165.407 88.725L169.848 73.7263L158.223 64.4565L172.592 64.4565ZM162.846 66.1051H173.683L177.032 54.7927L180.381 66.1051H191.219L182.451 73.0966L185.8 84.409L177.032 77.4175L168.265 84.409L171.614 73.0966L162.846 66.1051Z" fill="#0D2B52"/>
<path d="M137.477 92.8706L133.037 77.8718L118.667 77.8718L130.293 68.6021L125.852 53.6033L137.477 62.8731L149.102 53.6033L144.662 68.6021L156.287 77.8718L141.918 77.8718L137.477 92.8706Z" fill="#FF5200"/>
<path fill-rule="evenodd" clip-rule="evenodd" d="M133.037 77.8718L137.477 92.8706L141.918 77.8718L156.287 77.8718L144.662 68.6021L149.102 53.6033L137.477 62.8731L125.852 53.6033L130.293 68.6021L118.667 77.8718L133.037 77.8718ZM123.29 76.2233H134.128L137.477 87.5357L140.826 76.2233H151.664L142.896 69.2318L146.245 57.9194L137.477 64.9109L128.709 57.9194L132.058 69.2318L123.29 76.2233Z" fill="#0D2B52"/>
<path d="M58.3654 92.8706L53.925 77.8718L39.5556 77.8718L51.1807 68.6021L46.7403 53.6033L58.3654 62.8731L69.9906 53.6033L65.5502 68.6021L77.1753 77.8718L62.8058 77.8718L58.3654 92.8706Z" fill="#FF5200"/>
<path fill-rule="evenodd" clip-rule="evenodd" d="M53.925 77.8718L58.3654 92.8706L62.8058 77.8718L77.1753 77.8718L65.5502 68.6021L69.9906 53.6033L58.3654 62.8731L46.7403 53.6033L51.1807 68.6021L39.5556 77.8718L53.925 77.8718ZM44.1786 76.2233H55.0164L58.3654 87.5357L61.7145 76.2233H72.5523L63.7843 69.2318L67.1334 57.9194L58.3654 64.9109L49.5975 57.9194L52.9466 69.2318L44.1786 76.2233Z" fill="#0D2B52"/>
<path d="M97.9216 49.4578L93.4812 64.4565L79.1118 64.4565L90.7369 73.7263L86.2965 88.725L97.9216 79.4553L109.547 88.725L105.106 73.7263L116.731 64.4565L102.362 64.4565L97.9216 49.4578Z" fill="#FF5200"/>
<path fill-rule="evenodd" clip-rule="evenodd" d="M93.4812 64.4565L97.9216 49.4578L102.362 64.4565L116.731 64.4565L105.106 73.7263L109.547 88.725L97.9216 79.4553L86.2965 88.725L90.7369 73.7263L79.1118 64.4565L93.4812 64.4565ZM83.7348 66.1051H94.5725L97.9216 54.7927L101.271 66.1051H112.108L103.34 73.0966L106.69 84.409L97.9216 77.4175L89.1537 84.409L92.5027 73.0966L83.7348 66.1051Z" fill="#0D2B52"/>
<path d="M18.8098 49.4578L14.3694 64.4565L-6.10352e-05 64.4565L11.6251 73.7263L7.18466 88.725L18.8098 79.4553L30.4349 88.725L25.9945 73.7263L37.6196 64.4565L23.2502 64.4565L18.8098 49.4578Z" fill="#FF5200"/>
<path fill-rule="evenodd" clip-rule="evenodd" d="M14.3694 64.4565L18.8098 49.4578L23.2502 64.4565L37.6196 64.4565L25.9945 73.7263L30.4349 88.725L18.8098 79.4553L7.18466 88.725L11.6251 73.7263L-6.10352e-05 64.4565L14.3694 64.4565ZM4.62297 66.1051H15.4607L18.8098 54.7927L22.1588 66.1051H32.9966L24.2287 73.0966L27.5777 84.409L18.8098 77.4175L10.0418 84.409L13.3909 73.0966L4.62297 66.1051Z" fill="#0D2B52"/>
<path d="M644.19 43.4129L639.75 28.4142L625.38 28.4142L637.005 19.1444L632.565 4.14567L644.19 13.4154L655.815 4.14567L651.375 19.1444L663 28.4142L648.631 28.4142L644.19 43.4129Z" fill="#FF5200"/>
<path fill-rule="evenodd" clip-rule="evenodd" d="M639.75 28.4142L644.19 43.4129L648.631 28.4142L663 28.4142L651.375 19.1444L655.815 4.14567L644.19 13.4154L632.565 4.14567L637.005 19.1444L625.38 28.4142L639.75 28.4142ZM630.003 26.7656H640.841L644.19 38.078L647.539 26.7656H658.377L649.609 19.7741L652.958 8.46173L644.19 15.4532L635.422 8.46173L638.771 19.7741L630.003 26.7656Z" fill="#0D2B52"/>
<path d="M565.079 43.4129L560.639 28.4142L546.269 28.4142L557.895 19.1444L553.454 4.14567L565.079 13.4154L576.704 4.14567L572.264 19.1444L583.889 28.4142L569.52 28.4142L565.079 43.4129Z" fill="#FF5200"/>
<path fill-rule="evenodd" clip-rule="evenodd" d="M560.639 28.4142L565.079 43.4129L569.52 28.4142L583.889 28.4142L572.264 19.1444L576.704 4.14567L565.079 13.4154L553.454 4.14567L557.895 19.1444L546.269 28.4142L560.639 28.4142ZM550.893 26.7656H561.73L565.079 38.078L568.428 26.7656H579.266L570.498 19.7741L573.847 8.46173L565.079 15.4532L556.311 8.46173L559.66 19.7741L550.893 26.7656Z" fill="#0D2B52"/>
<path d="M604.634 9.15527e-05L600.194 14.9988L585.824 14.9989L597.449 24.2686L593.009 39.2674L604.634 29.9976L616.259 39.2674L611.819 24.2686L623.444 14.9989L609.074 14.9988L604.634 9.15527e-05Z" fill="#FF5200"/>
<path fill-rule="evenodd" clip-rule="evenodd" d="M600.194 14.9988L604.634 9.15527e-05L609.074 14.9988L623.444 14.9989L611.819 24.2686L616.259 39.2674L604.634 29.9976L593.009 39.2674L597.449 24.2686L585.824 14.9989L600.194 14.9988ZM590.447 16.6474H601.285L604.634 5.33503L607.983 16.6474H618.821L610.053 23.6389L613.402 34.9513L604.634 27.9598L595.866 34.9513L599.215 23.6389L590.447 16.6474Z" fill="#0D2B52"/>
<path d="M525.523 9.15527e-05L521.082 14.9988L506.713 14.9989L518.338 24.2686L513.898 39.2674L525.523 29.9976L537.148 39.2674L532.707 24.2686L544.333 14.9989L529.963 14.9988L525.523 9.15527e-05Z" fill="#FF5200"/>
<path fill-rule="evenodd" clip-rule="evenodd" d="M521.082 14.9988L525.523 9.15527e-05L529.963 14.9988L544.333 14.9989L532.707 24.2686L537.148 39.2674L525.523 29.9976L513.898 39.2674L518.338 24.2686L506.713 14.9989L521.082 14.9988ZM511.336 16.6474H522.174L525.523 5.33503L528.872 16.6474H539.709L530.942 23.6389L534.291 34.9513L525.523 27.9598L516.755 34.9513L520.104 23.6389L511.336 16.6474Z" fill="#0D2B52"/>
<path d="M485.967 43.413L481.527 28.4143L467.158 28.4143L478.783 19.1445L474.342 4.14576L485.967 13.4155L497.593 4.14576L493.152 19.1445L504.777 28.4143L490.408 28.4143L485.967 43.413Z" fill="#FF5200"/>
<path fill-rule="evenodd" clip-rule="evenodd" d="M481.527 28.4143L485.967 43.413L490.408 28.4143L504.777 28.4143L493.152 19.1445L497.593 4.14576L485.967 13.4155L474.342 4.14576L478.783 19.1445L467.158 28.4143L481.527 28.4143ZM471.781 26.7657H482.618L485.967 38.0781L489.317 26.7657H500.154L491.386 19.7742L494.735 8.46182L485.967 15.4533L477.2 8.46182L480.549 19.7742L471.781 26.7657Z" fill="#0D2B52"/>
<path d="M406.856 43.413L402.416 28.4143L388.046 28.4143L399.671 19.1445L395.231 4.14576L406.856 13.4155L418.481 4.14576L414.041 19.1445L425.666 28.4143L411.297 28.4143L406.856 43.413Z" fill="#FF5200"/>
<path fill-rule="evenodd" clip-rule="evenodd" d="M402.416 28.4143L406.856 43.413L411.297 28.4143L425.666 28.4143L414.041 19.1445L418.481 4.14576L406.856 13.4155L395.231 4.14576L399.671 19.1445L388.046 28.4143L402.416 28.4143ZM392.669 26.7657H403.507L406.856 38.0781L410.205 26.7657H421.043L412.275 19.7742L415.624 8.46182L406.856 15.4533L398.088 8.46182L401.437 19.7742L392.669 26.7657Z" fill="#0D2B52"/>
<path d="M446.412 0.000183105L441.972 14.9989L427.602 14.9989L439.228 24.2687L434.787 39.2674L446.412 29.9977L458.037 39.2674L453.597 24.2687L465.222 14.9989L450.853 14.9989L446.412 0.000183105Z" fill="#FF5200"/>
<path fill-rule="evenodd" clip-rule="evenodd" d="M441.972 14.9989L446.412 0.000183105L450.853 14.9989L465.222 14.9989L453.597 24.2687L458.037 39.2674L446.412 29.9977L434.787 39.2674L439.228 24.2687L427.602 14.9989L441.972 14.9989ZM432.226 16.6475H443.063L446.412 5.33512L449.761 16.6475H460.599L451.831 23.639L455.18 34.9514L446.412 27.9599L437.644 34.9514L440.993 23.639L432.226 16.6475Z" fill="#0D2B52"/>
<path d="M367.3 0.000183105L362.86 14.9989L348.49 14.9989L360.115 24.2687L355.675 39.2674L367.3 29.9977L378.925 39.2674L374.485 24.2687L386.11 14.9989L371.74 14.9989L367.3 0.000183105Z" fill="#FF5200"/>
<path fill-rule="evenodd" clip-rule="evenodd" d="M362.86 14.9989L367.3 0.000183105L371.74 14.9989L386.11 14.9989L374.485 24.2687L378.925 39.2674L367.3 29.9977L355.675 39.2674L360.115 24.2687L348.49 14.9989L362.86 14.9989ZM353.113 16.6475H363.951L367.3 5.33512L370.649 16.6475H381.487L372.719 23.639L376.068 34.9514L367.3 27.9599L358.532 34.9514L361.881 23.639L353.113 16.6475Z" fill="#0D2B52"/>
<path d="M323.739 43.413L319.299 28.4143L304.929 28.4143L316.554 19.1445L312.114 4.14576L323.739 13.4155L335.364 4.14576L330.924 19.1445L342.549 28.4143L328.179 28.4143L323.739 43.413Z" fill="#FF5200"/>
<path fill-rule="evenodd" clip-rule="evenodd" d="M319.299 28.4143L323.739 43.413L328.179 28.4143L342.549 28.4143L330.924 19.1445L335.364 4.14576L323.739 13.4155L312.114 4.14576L316.554 19.1445L304.929 28.4143L319.299 28.4143ZM309.552 26.7657H320.39L323.739 38.0781L327.088 26.7657H337.926L329.158 19.7742L332.507 8.46182L323.739 15.4533L314.971 8.46182L318.32 19.7742L309.552 26.7657Z" fill="#0D2B52"/>
<path d="M244.627 43.413L240.187 28.4143L225.817 28.4143L237.442 19.1445L233.002 4.14578L244.627 13.4155L256.252 4.14578L251.812 19.1445L263.437 28.4143L249.068 28.4143L244.627 43.413Z" fill="#FF5200"/>
<path fill-rule="evenodd" clip-rule="evenodd" d="M240.187 28.4143L244.627 43.413L249.068 28.4143L263.437 28.4143L251.812 19.1445L256.252 4.14578L244.627 13.4155L233.002 4.14578L237.442 19.1445L225.817 28.4143L240.187 28.4143ZM230.44 26.7657H241.278L244.627 38.0781L247.976 26.7657H258.814L250.046 19.7742L253.395 8.46184L244.627 15.4533L235.859 8.46184L239.208 19.7742L230.44 26.7657Z" fill="#0D2B52"/>
<path d="M284.183 0.000183105L279.742 14.9989L265.373 14.9989L276.998 24.2687L272.558 39.2674L284.183 29.9977L295.808 39.2674L291.368 24.2687L302.993 14.9989L288.623 14.9989L284.183 0.000183105Z" fill="#FF5200"/>
<path fill-rule="evenodd" clip-rule="evenodd" d="M279.742 14.9989L284.183 0.000183105L288.623 14.9989L302.993 14.9989L291.368 24.2687L295.808 39.2674L284.183 29.9977L272.558 39.2674L276.998 24.2687L265.373 14.9989L279.742 14.9989ZM269.996 16.6475H280.834L284.183 5.33512L287.532 16.6475H298.37L289.602 23.639L292.951 34.9514L284.183 27.9599L275.415 34.9514L278.764 23.639L269.996 16.6475Z" fill="#0D2B52"/>
<path d="M205.072 0.000183105L200.632 14.9989L186.262 14.9989L197.887 24.2687L193.447 39.2674L205.072 29.9977L216.697 39.2674L212.257 24.2687L223.882 14.9989L209.512 14.9989L205.072 0.000183105Z" fill="#FF5200"/>
<path fill-rule="evenodd" clip-rule="evenodd" d="M200.632 14.9989L205.072 0.000183105L209.512 14.9989L223.882 14.9989L212.257 24.2687L216.697 39.2674L205.072 29.9977L193.447 39.2674L197.887 24.2687L186.262 14.9989L200.632 14.9989ZM190.885 16.6475H201.723L205.072 5.33512L208.421 16.6475H219.259L210.491 23.639L213.84 34.9514L205.072 27.9599L196.304 34.9514L199.653 23.639L190.885 16.6475Z" fill="#0D2B52"/>
<path d="M165.517 43.4131L161.076 28.4144L146.707 28.4144L158.332 19.1446L153.892 4.14585L165.517 13.4156L177.142 4.14585L172.702 19.1446L184.327 28.4144L169.957 28.4144L165.517 43.4131Z" fill="#FF5200"/>
<path fill-rule="evenodd" clip-rule="evenodd" d="M161.076 28.4144L165.517 43.4131L169.957 28.4144L184.327 28.4144L172.702 19.1446L177.142 4.14585L165.517 13.4156L153.892 4.14585L158.332 19.1446L146.707 28.4144L161.076 28.4144ZM151.33 26.7658H162.168L165.517 38.0782L168.866 26.7658H179.704L170.936 19.7743L174.285 8.46191L165.517 15.4534L156.749 8.46191L160.098 19.7743L151.33 26.7658Z" fill="#0D2B52"/>
<path d="M86.4055 43.4131L81.9651 28.4144L67.5956 28.4144L79.2208 19.1446L74.7804 4.14585L86.4055 13.4156L98.0306 4.14585L93.5902 19.1446L105.215 28.4144L90.8459 28.4144L86.4055 43.4131Z" fill="#FF5200"/>
<path fill-rule="evenodd" clip-rule="evenodd" d="M81.9651 28.4144L86.4055 43.4131L90.8459 28.4144L105.215 28.4144L93.5902 19.1446L98.0306 4.14585L86.4055 13.4156L74.7804 4.14585L79.2208 19.1446L67.5956 28.4144L81.9651 28.4144ZM72.2187 26.7658H83.0564L86.4055 38.0782L89.7545 26.7658H100.592L91.8244 19.7743L95.1734 8.46191L86.4055 15.4534L77.6376 8.46191L80.9866 19.7743L72.2187 26.7658Z" fill="#0D2B52"/>
<path d="M125.961 0.000274658L121.521 14.999L107.151 14.999L118.776 24.2688L114.336 39.2675L125.961 29.9978L137.586 39.2675L133.146 24.2688L144.771 14.999L130.402 14.999L125.961 0.000274658Z" fill="#FF5200"/>
<path fill-rule="evenodd" clip-rule="evenodd" d="M121.521 14.999L125.961 0.000274658L130.402 14.999L144.771 14.999L133.146 24.2688L137.586 39.2675L125.961 29.9978L114.336 39.2675L118.776 24.2688L107.151 14.999L121.521 14.999ZM111.774 16.6476H122.612L125.961 5.33522L129.31 16.6476H140.148L131.38 23.6391L134.729 34.9515L125.961 27.96L117.193 34.9515L120.542 23.6391L111.774 16.6476Z" fill="#0D2B52"/>
<path d="M46.8498 0.000274658L42.4094 14.999L28.04 14.999L39.6651 24.2688L35.2247 39.2675L46.8498 29.9978L58.4749 39.2675L54.0345 24.2688L65.6597 14.999L51.2902 14.999L46.8498 0.000274658Z" fill="#FF5200"/>
<path fill-rule="evenodd" clip-rule="evenodd" d="M42.4094 14.999L46.8498 0.000274658L51.2902 14.999L65.6597 14.999L54.0345 24.2688L58.4749 39.2675L46.8498 29.9978L35.2247 39.2675L39.6651 24.2688L28.04 14.999L42.4094 14.999ZM32.663 16.6476H43.5008L46.8498 5.33522L50.1989 16.6476H61.0366L52.2687 23.6391L55.6178 34.9515L46.8498 27.96L38.0819 34.9515L41.4309 23.6391L32.663 16.6476Z" fill="#0D2B52"/>
</svg>
