<svg width="245" height="1487" viewBox="0 0 245 1487" fill="none" xmlns="http://www.w3.org/2000/svg">
<path fill-rule="evenodd" clip-rule="evenodd" d="M0 232.99L0 -185L245 -185L245 232.99H228.666C228.666 228.141 226.039 223.49 221.364 220.062C216.689 216.633 210.348 214.707 203.736 214.707C197.124 214.707 190.783 216.633 186.108 220.062C181.433 223.49 178.806 228.141 178.806 232.99H147.859C147.859 228.141 145.232 223.49 140.557 220.062C135.882 216.633 129.541 214.707 122.929 214.707C116.317 214.707 109.976 216.633 105.301 220.062C100.626 223.49 97.9991 228.141 97.999 232.99H0ZM97.999 232.99V232.99L122.929 232.99L147.859 232.99V232.99L97.999 232.99ZM178.806 232.99V232.99L203.736 232.99L228.666 232.99V232.99H178.806ZM67.0525 232.989C67.0525 228.141 64.4259 223.49 59.7507 220.061C55.0754 216.633 48.7344 214.706 42.1226 214.706C35.5108 214.706 29.1698 216.633 24.4946 220.061C19.8193 223.49 17.1928 228.141 17.1928 232.989L42.1226 232.989L67.0525 232.989ZM186.109 -172.071C181.434 -175.5 178.808 -180.151 178.808 -185L203.737 -185H228.667C228.667 -180.151 226.041 -175.5 221.365 -172.071C216.69 -168.643 210.349 -166.716 203.737 -166.716C197.126 -166.716 190.785 -168.643 186.109 -172.071ZM98.0006 -185C98.0006 -180.151 100.627 -175.5 105.302 -172.072C109.978 -168.643 116.319 -166.717 122.93 -166.717C129.542 -166.717 135.883 -168.643 140.558 -172.072C145.234 -175.5 147.86 -180.151 147.86 -185H122.93H98.0006ZM24.4956 -172.071C19.8204 -175.5 17.1938 -180.15 17.1938 -184.999H42.1237H67.0535C67.0535 -180.15 64.427 -175.5 59.7517 -172.071C55.0765 -168.642 48.7355 -166.716 42.1237 -166.716C35.5119 -166.716 29.1709 -168.642 24.4956 -172.071Z" fill="#A6FF47"/>
<path fill-rule="evenodd" clip-rule="evenodd" d="M0 1069L0 651H98.0002C98.0003 655.849 100.627 660.499 105.302 663.928C109.977 667.357 116.318 669.283 122.93 669.283C129.542 669.283 135.883 667.357 140.558 663.928C145.233 660.499 147.86 655.849 147.86 651H245L245 1069H228.666C228.666 1064.15 226.039 1059.5 221.364 1056.07C216.689 1052.64 210.348 1050.72 203.736 1050.72C197.124 1050.72 190.783 1052.64 186.108 1056.07C181.433 1059.5 178.806 1064.15 178.806 1069H147.859C147.859 1064.15 145.232 1059.5 140.557 1056.07C135.882 1052.64 129.541 1050.72 122.929 1050.72C116.317 1050.72 109.976 1052.64 105.301 1056.07C100.626 1059.5 97.9991 1064.15 97.999 1069H0ZM97.999 1069V1069L122.929 1069L147.859 1069V1069H97.999ZM178.806 1069V1069L203.736 1069L228.666 1069V1069H178.806ZM147.86 651V651H122.93H98.0002V651H147.86ZM67.0525 1069C67.0525 1064.15 64.426 1059.5 59.7507 1056.07C55.0755 1052.64 48.7345 1050.72 42.1227 1050.72C35.5109 1050.72 29.1699 1052.64 24.4946 1056.07C19.8194 1059.5 17.1929 1064.15 17.1929 1069L42.1227 1069L67.0525 1069ZM186.109 663.928C181.434 660.5 178.807 655.849 178.807 651H203.737H228.667C228.667 655.849 226.04 660.5 221.365 663.928C216.69 667.357 210.349 669.284 203.737 669.284C197.125 669.284 190.784 667.357 186.109 663.928ZM24.4953 663.928C19.8201 660.5 17.1936 655.849 17.1936 651H42.1234H67.0532C67.0532 655.849 64.4267 660.5 59.7514 663.928C55.0762 667.357 48.7352 669.284 42.1234 669.284C35.5116 669.284 29.1706 667.357 24.4953 663.928Z" fill="#A6FF47"/>
<rect x="26.4297" y="1030.93" width="342.496" height="192.14" transform="rotate(-90 26.4297 1030.93)" stroke="#FF5200" stroke-width="3"/>
<path fill-rule="evenodd" clip-rule="evenodd" d="M0 1486.83L0 1069L98.0002 1069C98.0002 1073.85 100.627 1078.5 105.302 1081.92C109.977 1085.35 116.318 1087.28 122.93 1087.28C129.542 1087.28 135.883 1085.35 140.558 1081.92C145.233 1078.5 147.86 1073.85 147.86 1069L245 1069L245 1486.83H147.859C147.858 1481.98 145.232 1477.34 140.557 1473.91C135.882 1470.48 129.541 1468.56 122.929 1468.56C116.317 1468.56 109.976 1470.48 105.301 1473.91C100.626 1477.34 97.9993 1481.98 97.999 1486.83H0ZM97.999 1486.83V1486.83L122.929 1486.83L147.859 1486.83V1486.83H97.999ZM67.0525 1486.83C67.0525 1481.98 64.426 1477.34 59.7507 1473.91C55.0755 1470.48 48.7345 1468.55 42.1227 1468.55C35.5109 1468.55 29.1699 1470.48 24.4946 1473.91C19.8194 1477.34 17.1929 1481.98 17.1929 1486.83L42.1227 1486.83L67.0525 1486.83ZM228.666 1486.83C228.666 1481.98 226.039 1477.34 221.364 1473.91C216.689 1470.48 210.348 1468.55 203.736 1468.55C197.124 1468.55 190.783 1470.48 186.108 1473.91C181.433 1477.34 178.806 1481.98 178.806 1486.83L203.736 1486.83L228.666 1486.83ZM186.109 1081.92C181.434 1078.5 178.807 1073.85 178.807 1069H203.737H228.667C228.667 1073.85 226.04 1078.5 221.365 1081.92C216.69 1085.35 210.349 1087.28 203.737 1087.28C197.125 1087.28 190.784 1085.35 186.109 1081.92ZM24.4953 1081.92C19.8201 1078.5 17.1936 1073.85 17.1936 1069H42.1234H67.0532C67.0532 1073.85 64.4267 1078.5 59.7514 1081.92C55.0762 1085.35 48.7352 1087.28 42.1234 1087.28C35.5116 1087.28 29.1706 1085.35 24.4953 1081.92Z" fill="#FF5200"/>
<rect x="26.4297" y="1448.78" width="342.356" height="192.14" transform="rotate(-90 26.4297 1448.78)" fill="#FF5200" stroke="#A6FF47" stroke-width="3"/>
<path fill-rule="evenodd" clip-rule="evenodd" d="M0 650.999L0 233H245L245 650.999H147.859C147.858 646.151 145.232 641.5 140.557 638.072C135.882 634.643 129.541 632.716 122.929 632.716C116.317 632.716 109.976 634.643 105.301 638.072C100.626 641.5 97.9992 646.151 97.999 650.999H0ZM97.999 650.999V651L122.929 651L147.859 651V650.999H97.999ZM67.0525 650.999C67.0525 646.15 64.426 641.499 59.7507 638.071C55.0755 634.642 48.7345 632.715 42.1227 632.715C35.5109 632.715 29.1699 634.642 24.4946 638.071C19.8194 641.499 17.1929 646.15 17.1929 650.999L42.1227 650.999L67.0525 650.999ZM228.666 650.999C228.666 646.15 226.039 641.499 221.364 638.071C216.689 634.642 210.348 632.715 203.736 632.715C197.124 632.715 190.783 634.642 186.108 638.071C181.433 641.499 178.806 646.15 178.806 650.999L203.736 650.999L228.666 650.999ZM186.109 245.928C181.434 242.5 178.807 237.849 178.807 233H203.737H228.667C228.667 237.849 226.04 242.5 221.365 245.928C216.69 249.357 210.349 251.284 203.737 251.284C197.125 251.284 190.784 249.357 186.109 245.928ZM98.0002 233C98.0002 237.849 100.627 242.5 105.302 245.928C109.977 249.357 116.318 251.284 122.93 251.284C129.542 251.284 135.883 249.357 140.558 245.928C145.233 242.5 147.86 237.849 147.86 233H122.93H98.0002ZM24.4953 245.928C19.8201 242.5 17.1936 237.849 17.1936 233H42.1234H67.0532C67.0532 237.849 64.4267 242.5 59.7514 245.928C55.0762 249.357 48.7352 251.284 42.1234 251.284C35.5116 251.284 29.1706 249.357 24.4953 245.928Z" fill="#FF5200"/>
<rect x="26.4297" y="612.932" width="342.496" height="192.14" transform="rotate(-90 26.4297 612.932)" fill="#FF5200" stroke="#A6FF47" stroke-width="3"/>
</svg>
