<svg width="245" height="1557" viewBox="0 0 245 1557" fill="none" xmlns="http://www.w3.org/2000/svg">
<path fill-rule="evenodd" clip-rule="evenodd" d="M0 302.99L0 -115L245 -115L245 302.99H228.666C228.666 298.141 226.039 293.49 221.364 290.062C216.689 286.633 210.348 284.707 203.736 284.707C197.124 284.707 190.783 286.633 186.108 290.062C181.433 293.49 178.806 298.141 178.806 302.99H147.859C147.859 298.141 145.232 293.49 140.557 290.062C135.882 286.633 129.541 284.707 122.929 284.707C116.317 284.707 109.976 286.633 105.301 290.062C100.626 293.49 97.9991 298.141 97.999 302.99H0ZM97.999 302.99V302.99L122.929 302.99L147.859 302.99V302.99H97.999ZM178.806 302.99V302.99L203.736 302.99L228.666 302.99V302.99L178.806 302.99ZM67.0525 302.989C67.0525 298.141 64.4259 293.49 59.7507 290.061C55.0754 286.633 48.7344 284.706 42.1226 284.706C35.5108 284.706 29.1698 286.633 24.4946 290.061C19.8193 293.49 17.1928 298.141 17.1928 302.989L42.1226 302.989L67.0525 302.989ZM186.109 -102.071C181.434 -105.5 178.808 -110.151 178.808 -115L203.737 -115H228.667C228.667 -110.151 226.041 -105.5 221.365 -102.071C216.69 -98.6427 210.349 -96.7164 203.737 -96.7164C197.126 -96.7164 190.785 -98.6427 186.109 -102.071ZM98.0006 -115C98.0006 -110.151 100.627 -105.5 105.302 -102.072C109.978 -98.6429 116.319 -96.7167 122.93 -96.7167C129.542 -96.7167 135.883 -98.6429 140.558 -102.072C145.234 -105.5 147.86 -110.151 147.86 -115H122.93H98.0006ZM24.4956 -102.071C19.8204 -105.5 17.1938 -110.15 17.1938 -114.999H42.1237H67.0535C67.0535 -110.15 64.427 -105.5 59.7517 -102.071C55.0765 -98.6425 48.7355 -96.7162 42.1237 -96.7162C35.5119 -96.7162 29.1709 -98.6425 24.4956 -102.071Z" fill="#FF5200"/>
<path fill-rule="evenodd" clip-rule="evenodd" d="M0 720.999L0 303H245V720.999H147.859C147.858 716.15 145.232 711.5 140.557 708.072C135.882 704.643 129.541 702.716 122.929 702.716C116.317 702.716 109.976 704.643 105.301 708.072C100.626 711.5 97.9993 716.15 97.999 720.999H0ZM97.999 720.999V721L122.929 721L147.859 721V720.999H97.999ZM67.0525 720.999C67.0525 716.15 64.426 711.499 59.7507 708.071C55.0755 704.642 48.7345 702.716 42.1227 702.716C35.5109 702.716 29.1699 704.642 24.4947 708.071C19.8194 711.499 17.1929 716.15 17.1929 720.999L42.1227 720.999L67.0525 720.999ZM228.666 720.999C228.666 716.15 226.039 711.499 221.364 708.071C216.689 704.642 210.348 702.716 203.736 702.716C197.124 702.716 190.783 704.642 186.108 708.071C181.433 711.499 178.806 716.15 178.806 720.999L203.736 720.999L228.666 720.999ZM186.11 315.929C181.434 312.5 178.808 307.85 178.808 303.001H203.738H228.667C228.667 307.85 226.041 312.5 221.366 315.929C216.69 319.358 210.349 321.284 203.738 321.284C197.126 321.284 190.785 319.358 186.11 315.929ZM98.0002 303C98.0002 307.849 100.627 312.5 105.302 315.929C109.977 319.358 116.318 321.284 122.93 321.284C129.542 321.284 135.883 319.358 140.558 315.929C145.233 312.5 147.86 307.849 147.86 303H122.93H98.0002ZM24.4958 315.929C19.8206 312.5 17.1941 307.85 17.1941 303.001H42.1239H67.0537C67.0537 307.85 64.4272 312.5 59.7519 315.929C55.0767 319.358 48.7357 321.284 42.1239 321.284C35.5121 321.284 29.1711 319.358 24.4958 315.929Z" fill="#A6FF47"/>
<rect x="26.4297" y="682.932" width="342.496" height="192.14" transform="rotate(-90 26.4297 682.932)" stroke="#FF5200" stroke-width="3"/>
<path fill-rule="evenodd" clip-rule="evenodd" d="M0 1139L0 721H98.0002C98.0003 725.849 100.627 730.5 105.302 733.928C109.977 737.357 116.318 739.284 122.93 739.284C129.542 739.284 135.883 737.357 140.558 733.928C145.233 730.5 147.86 725.849 147.86 721H245L245 1139H228.666C228.666 1134.15 226.039 1129.5 221.364 1126.07C216.689 1122.64 210.348 1120.72 203.736 1120.72C197.124 1120.72 190.783 1122.64 186.108 1126.07C181.433 1129.5 178.806 1134.15 178.806 1139H147.859C147.859 1134.15 145.232 1129.5 140.557 1126.07C135.882 1122.64 129.541 1120.72 122.929 1120.72C116.317 1120.72 109.976 1122.64 105.301 1126.07C100.626 1129.5 97.9991 1134.15 97.999 1139H0ZM97.999 1139V1139L122.929 1139L147.859 1139V1139H97.999ZM178.806 1139V1139L203.736 1139L228.666 1139V1139H178.806ZM147.86 721V721H122.93H98.0002V721H147.86ZM67.0525 1139C67.0525 1134.15 64.426 1129.5 59.7507 1126.07C55.0755 1122.64 48.7345 1120.72 42.1227 1120.72C35.5109 1120.72 29.1699 1122.64 24.4946 1126.07C19.8194 1129.5 17.1929 1134.15 17.1929 1139L42.1227 1139L67.0525 1139ZM186.109 733.929C181.434 730.5 178.807 725.85 178.807 721.001H203.737H228.667C228.667 725.85 226.04 730.5 221.365 733.929C216.69 737.358 210.349 739.284 203.737 739.284C197.125 739.284 190.784 737.358 186.109 733.929ZM24.4953 733.929C19.8201 730.5 17.1936 725.85 17.1936 721.001H42.1234H67.0532C67.0532 725.85 64.4267 730.5 59.7514 733.929C55.0762 737.358 48.7352 739.284 42.1234 739.284C35.5116 739.284 29.1706 737.358 24.4953 733.929Z" fill="#FF5200"/>
<rect x="26.4297" y="1100.93" width="342.496" height="192.14" transform="rotate(-90 26.4297 1100.93)" fill="#FF5200" stroke="#A6FF47" stroke-width="3"/>
<path fill-rule="evenodd" clip-rule="evenodd" d="M0 1557L0 1139L98.0002 1139C98.0002 1143.85 100.627 1148.5 105.302 1151.93C109.977 1155.36 116.318 1157.28 122.93 1157.28C129.542 1157.28 135.883 1155.36 140.558 1151.93C145.233 1148.5 147.86 1143.85 147.86 1139L245 1139L245 1557H147.859C147.858 1552.15 145.232 1547.5 140.557 1544.07C135.882 1540.64 129.541 1538.72 122.929 1538.72C116.317 1538.72 109.976 1540.64 105.301 1544.07C100.626 1547.5 97.9994 1552.15 97.999 1557H0ZM97.999 1557V1557L122.929 1557H147.859V1557H97.999ZM67.0525 1557C67.0525 1552.15 64.426 1547.5 59.7507 1544.07C55.0755 1540.64 48.7345 1538.71 42.1227 1538.71C35.5109 1538.71 29.1699 1540.64 24.4946 1544.07C19.8194 1547.5 17.1929 1552.15 17.1929 1557L42.1227 1557L67.0525 1557ZM228.666 1557C228.666 1552.15 226.039 1547.5 221.364 1544.07C216.689 1540.64 210.348 1538.71 203.736 1538.71C197.124 1538.71 190.783 1540.64 186.108 1544.07C181.433 1547.5 178.806 1552.15 178.806 1557L203.736 1557L228.666 1557ZM186.109 1151.93C181.434 1148.5 178.807 1143.85 178.807 1139H203.737H228.667C228.667 1143.85 226.04 1148.5 221.365 1151.93C216.69 1155.36 210.349 1157.28 203.737 1157.28C197.125 1157.28 190.784 1155.36 186.109 1151.93ZM24.4953 1151.93C19.8201 1148.5 17.1936 1143.85 17.1936 1139H42.1234H67.0532C67.0532 1143.85 64.4267 1148.5 59.7514 1151.93C55.0762 1155.36 48.7352 1157.28 42.1234 1157.28C35.5116 1157.28 29.1706 1155.36 24.4953 1151.93Z" fill="#A6FF47"/>
<rect x="26.4297" y="1518.93" width="342.495" height="192.14" transform="rotate(-90 26.4297 1518.93)" stroke="#FF5200" stroke-width="3"/>
</svg>
