<svg width="245" height="1671" viewBox="0 0 245 1671" fill="none" xmlns="http://www.w3.org/2000/svg">
<path fill-rule="evenodd" clip-rule="evenodd" d="M0 417.99L0 0L245 0L245 417.99H228.666C228.666 413.141 226.039 408.49 221.364 405.062C216.689 401.633 210.348 399.707 203.736 399.707C197.124 399.707 190.783 401.633 186.108 405.062C181.433 408.49 178.806 413.141 178.806 417.99H147.859C147.859 413.141 145.232 408.49 140.557 405.062C135.882 401.633 129.541 399.707 122.929 399.707C116.317 399.707 109.976 401.633 105.301 405.062C100.626 408.49 97.9991 413.141 97.999 417.99H0ZM97.999 417.99V417.99L122.929 417.99L147.859 417.99V417.99H97.999ZM178.806 417.99V417.99L203.736 417.99L228.666 417.99V417.99L178.806 417.99ZM67.0525 417.989C67.0525 413.141 64.4259 408.49 59.7507 405.061C55.0754 401.633 48.7344 399.706 42.1226 399.706C35.5108 399.706 29.1698 401.633 24.4946 405.061C19.8193 408.49 17.1928 413.141 17.1928 417.989L42.1226 417.989L67.0525 417.989ZM186.109 12.9286C181.434 9.49985 178.808 4.84946 178.808 0.000488281L203.737 0.000488281H228.667C228.667 4.84946 226.041 9.49985 221.365 12.9286C216.69 16.3573 210.349 18.2836 203.737 18.2836C197.126 18.2836 190.785 16.3573 186.109 12.9286ZM98.0006 0.000183105C98.0006 4.84918 100.627 9.49954 105.302 12.9283C109.978 16.3571 116.319 18.2833 122.93 18.2833C129.542 18.2833 135.883 16.3571 140.558 12.9283C145.234 9.49954 147.86 4.84918 147.86 0.000183105H122.93H98.0006ZM24.4956 12.9288C19.8204 9.50003 17.1938 4.84967 17.1938 0.000671387H42.1237H67.0535C67.0535 4.84967 64.427 9.50003 59.7517 12.9288C55.0765 16.3575 48.7355 18.2838 42.1237 18.2838C35.5119 18.2838 29.1709 16.3575 24.4956 12.9288Z" fill="#A6FF47"/>
<rect x="26.4297" y="379.924" width="342.488" height="192.14" transform="rotate(-90 26.4297 379.924)" stroke="#FF5200" stroke-width="3"/>
<path fill-rule="evenodd" clip-rule="evenodd" d="M0 835.99L0 417.991L17.1936 417.991C17.1936 422.84 19.8201 427.49 24.4953 430.919C29.1706 434.348 35.5116 436.274 42.1234 436.274C48.7352 436.274 55.0762 434.348 59.7514 430.919C64.4267 427.49 67.0532 422.84 67.0532 417.991L98.0002 417.991C98.0004 422.839 100.627 427.49 105.302 430.918C109.977 434.347 116.318 436.274 122.93 436.274C129.542 436.274 135.883 434.347 140.558 430.918C145.233 427.49 147.86 422.839 147.86 417.991L245 417.991L245 835.99H228.666C228.666 831.141 226.039 826.491 221.364 823.062C216.689 819.633 210.348 817.707 203.736 817.707C197.124 817.707 190.783 819.633 186.108 823.062C181.433 826.491 178.806 831.141 178.806 835.99H147.859C147.859 831.141 145.232 826.491 140.557 823.062C135.882 819.633 129.541 817.707 122.929 817.707C116.317 817.707 109.976 819.633 105.301 823.062C100.626 826.491 97.9991 831.141 97.999 835.99H0ZM97.999 835.99V835.99L122.929 835.99L147.859 835.99V835.99H97.999ZM178.806 835.99V835.99L203.736 835.99L228.666 835.99V835.99H178.806ZM147.86 417.991V417.99H122.93H98.0002V417.991H147.86ZM67.0525 835.99C67.0525 831.14 64.426 826.49 59.7507 823.061C55.0755 819.632 48.7345 817.706 42.1227 817.706C35.5109 817.706 29.1699 819.632 24.4946 823.061C19.8194 826.49 17.1929 831.14 17.1929 835.99L42.1227 835.99L67.0525 835.99ZM186.109 430.919C181.434 427.49 178.807 422.84 178.807 417.991L203.737 417.991H228.667C228.667 422.84 226.04 427.49 221.365 430.919C216.69 434.348 210.349 436.274 203.737 436.274C197.125 436.274 190.784 434.348 186.109 430.919Z" fill="#FF5200"/>
<rect x="26.4297" y="797.922" width="342.496" height="192.14" transform="rotate(-90 26.4297 797.922)" fill="#FF5200" stroke="#A6FF47" stroke-width="3"/>
<path fill-rule="evenodd" clip-rule="evenodd" d="M0 1253.99L0 835.99H98.0002C98.0003 840.839 100.627 845.49 105.302 848.918C109.977 852.347 116.318 854.273 122.93 854.273C129.542 854.273 135.883 852.347 140.558 848.918C145.233 845.49 147.86 840.839 147.86 835.99H245V1253.99H147.859C147.858 1249.14 145.232 1244.49 140.557 1241.06C135.882 1237.63 129.541 1235.71 122.929 1235.71C116.317 1235.71 109.976 1237.63 105.301 1241.06C100.626 1244.49 97.9994 1249.14 97.999 1253.99H0ZM97.999 1253.99V1253.99L122.929 1253.99H147.859V1253.99H97.999ZM147.86 835.99V835.99H122.93H98.0002V835.99H147.86ZM67.0525 1253.99C67.0525 1249.14 64.426 1244.49 59.7507 1241.06C55.0755 1237.63 48.7345 1235.71 42.1227 1235.71C35.5109 1235.71 29.1699 1237.63 24.4947 1241.06C19.8194 1244.49 17.1929 1249.14 17.1929 1253.99L42.1227 1253.99L67.0525 1253.99ZM228.666 1253.99C228.666 1249.14 226.039 1244.49 221.364 1241.06C216.689 1237.63 210.348 1235.71 203.736 1235.71C197.124 1235.71 190.783 1237.63 186.108 1241.06C181.433 1244.49 178.806 1249.14 178.806 1253.99L203.736 1253.99L228.666 1253.99ZM186.11 848.919C181.434 845.49 178.808 840.84 178.808 835.99H203.738H228.667C228.667 840.84 226.041 845.49 221.366 848.919C216.69 852.348 210.349 854.274 203.738 854.274C197.126 854.274 190.785 852.348 186.11 848.919ZM24.4958 848.919C19.8206 845.49 17.1941 840.84 17.1941 835.99H42.1239H67.0537C67.0537 840.84 64.4272 845.49 59.7519 848.919C55.0767 852.348 48.7357 854.274 42.1239 854.274C35.5121 854.274 29.1711 852.348 24.4958 848.919Z" fill="#A6FF47"/>
<rect x="26.4297" y="1215.92" width="342.496" height="192.14" transform="rotate(-90 26.4297 1215.92)" stroke="#FF5200" stroke-width="3"/>
<path fill-rule="evenodd" clip-rule="evenodd" d="M0 1670.99L0 1253.99L98.0001 1253.99C98.0001 1258.83 100.627 1263.47 105.302 1266.89C109.977 1270.31 116.318 1272.23 122.93 1272.23C129.542 1272.23 135.883 1270.31 140.558 1266.89C145.233 1263.47 147.86 1258.83 147.86 1253.99L245 1253.99L245 1670.99H228.666C228.666 1666.15 226.039 1661.51 221.364 1658.09C216.689 1654.67 210.348 1652.75 203.736 1652.75C197.124 1652.75 190.783 1654.67 186.108 1658.09C181.433 1661.51 178.806 1666.15 178.806 1670.99H147.859C147.858 1666.15 145.232 1661.51 140.557 1658.09C135.882 1654.67 129.541 1652.75 122.929 1652.75C116.317 1652.75 109.976 1654.67 105.301 1658.09C100.626 1661.51 97.9992 1666.15 97.999 1670.99H67.0524C67.0522 1666.15 64.4257 1661.51 59.7506 1658.09C55.0754 1654.67 48.7344 1652.75 42.1226 1652.75C35.5108 1652.75 29.1698 1654.67 24.4945 1658.09C19.8194 1661.51 17.1929 1666.15 17.1927 1670.99H0ZM17.1927 1670.99V1670.99L42.1226 1670.99L67.0524 1670.99V1670.99H17.1927ZM97.999 1670.99V1670.99L122.929 1670.99L147.859 1670.99V1670.99H97.999ZM178.806 1670.99V1670.99L203.736 1670.99L228.666 1670.99V1670.99H178.806ZM186.109 1266.89C181.434 1263.47 178.808 1258.83 178.808 1253.99H203.737H228.667C228.667 1258.83 226.041 1263.47 221.365 1266.89C216.69 1270.31 210.349 1272.23 203.737 1272.23C197.126 1272.23 190.785 1270.31 186.109 1266.89ZM24.4956 1266.89C19.8204 1263.47 17.1939 1258.83 17.1939 1253.99H42.1237H67.0535C67.0535 1258.83 64.427 1263.47 59.7517 1266.89C55.0765 1270.31 48.7355 1272.23 42.1237 1272.23C35.5119 1272.23 29.1709 1270.31 24.4956 1266.89Z" fill="#FF5200"/>
<rect x="26.4297" y="1633.01" width="341.669" height="192.14" transform="rotate(-90 26.4297 1633.01)" fill="#FF5200" stroke="#A6FF47" stroke-width="3"/>
</svg>
