<svg width="582" height="250" viewBox="0 0 582 250" fill="none" xmlns="http://www.w3.org/2000/svg">
<path fill-rule="evenodd" clip-rule="evenodd" d="M0 0H582V250H0V0ZM2.05908e-05 68.421C6.75164 68.421 13.2267 65.7409 18.0008 60.9702C22.775 56.1996 25.457 49.7292 25.457 42.9824C25.457 36.2357 22.775 29.7653 18.0008 24.9946C13.2267 20.224 6.75164 17.5438 2.44347e-05 17.5438L2.05908e-05 42.9824V68.421ZM18.0008 143.426C13.2267 148.197 6.75164 150.877 2.05908e-05 150.877V125.439L2.44347e-05 100C6.75164 100 13.2267 102.68 18.0008 107.451C22.775 112.221 25.457 118.692 25.457 125.439C25.457 132.185 22.775 138.656 18.0008 143.426ZM2.05908e-05 233.333C6.75164 233.333 13.2267 230.653 18.0008 225.883C22.775 221.112 25.457 214.641 25.457 207.895C25.457 201.148 22.775 194.678 18.0008 189.907C13.2267 185.136 6.75164 182.456 2.44347e-05 182.456L2.05908e-05 207.895V233.333ZM563.999 189.907C568.773 185.136 575.248 182.456 582 182.456V207.895V233.333C575.248 233.333 568.773 230.653 563.999 225.883C559.225 221.112 556.543 214.641 556.543 207.895C556.543 201.148 559.225 194.678 563.999 189.907ZM582 100C575.248 100 568.773 102.68 563.999 107.451C559.225 112.221 556.543 118.692 556.543 125.439C556.543 132.185 559.225 138.656 563.999 143.426C568.773 148.197 575.248 150.877 582 150.877V125.439V100ZM563.999 24.9947C568.773 20.224 575.248 17.5439 582 17.5439V42.9825V68.4211C575.248 68.4211 568.773 65.741 563.999 60.9703C559.225 56.1996 556.543 49.7292 556.543 42.9825C556.543 36.2357 559.225 29.7653 563.999 24.9947Z" fill="#FF5200"/>
<rect x="52.4136" y="26.9386" width="478.05" height="196.123" stroke="#A6FF47" stroke-width="3"/>
</svg>
